<?xml version="1.0" encoding="utf-8" standalone="no"?>
<!DOCTYPE svg PUBLIC "-//W3C//DTD SVG 1.1//EN"
  "http://www.w3.org/Graphics/SVG/1.1/DTD/svg11.dtd">
<svg xmlns:xlink="http://www.w3.org/1999/xlink" width="720pt" height="576pt" viewBox="0 0 720 576" xmlns="http://www.w3.org/2000/svg" version="1.1">
 <metadata>
  <rdf:RDF xmlns:dc="http://purl.org/dc/elements/1.1/" xmlns:cc="http://creativecommons.org/ns#" xmlns:rdf="http://www.w3.org/1999/02/22-rdf-syntax-ns#">
   <cc:Work>
    <dc:type rdf:resource="http://purl.org/dc/dcmitype/StillImage"/>
    <dc:date>2026-02-24T20:14:36.276965</dc:date>
    <dc:format>image/svg+xml</dc:format>
    <dc:creator>
     <cc:Agent>
      <dc:title>Matplotlib v3.10.3, https://matplotlib.org/</dc:title>
     </cc:Agent>
    </dc:creator>
   </cc:Work>
  </rdf:RDF>
 </metadata>
 <defs>
  <style type="text/css">*{stroke-linejoin: round; stroke-linecap: butt}</style>
 </defs>
 <g id="figure_1">
  <g id="patch_1">
   <path d="M 0 576 
L 720 576 
L 720 0 
L 0 0 
z
" style="fill: #ffffff"/>
  </g>
  <g id="axes_1">
   <g id="patch_2">
    <path d="M 10.8 565.2 
L 709.2 565.2 
L 709.2 26.88 
L 10.8 26.88 
z
" style="fill: #ffffff"/>
   </g>
   <g id="EdgeCollection_1">
    <path d="M 385.686024 171.426337 
L 416.587495 76.102044 
" clip-path="url(#pfd8b779e2a)" style="fill: #444444; stroke: #444444; stroke-width: 0.3"/>
    <path d="M 316.124275 434.342606 
L 331.992856 333.935667 
" clip-path="url(#pfd8b779e2a)" style="fill: #444444; stroke: #444444; stroke-width: 0.3"/>
    <path d="M 329.88317 331.450303 
L 154.122716 330.324568 
" clip-path="url(#pfd8b779e2a)" style="fill: #444444; stroke: #444444; stroke-width: 0.3"/>
    <path d="M 329.930372 331.950088 
L 160.607402 365.346834 
" clip-path="url(#pfd8b779e2a)" style="fill: #444444; stroke: #444444; stroke-width: 0.3"/>
    <path d="M 412.716423 376.161735 
L 334.567752 332.68179 
" clip-path="url(#pfd8b779e2a)" style="fill: #444444; stroke: #444444; stroke-width: 0.3"/>
    <path d="M 432.804641 399.040527 
L 334.457253 332.862012 
" clip-path="url(#pfd8b779e2a)" style="fill: #444444; stroke: #444444; stroke-width: 0.3"/>
    <path d="M 196.985952 366.091373 
L 329.961063 332.085707 
" clip-path="url(#pfd8b779e2a)" style="fill: #444444; stroke: #444444; stroke-width: 0.3"/>
    <path d="M 330.234445 330.188348 
L 199.691108 252.545023 
" clip-path="url(#pfd8b779e2a)" style="fill: #444444; stroke: #444444; stroke-width: 0.3"/>
    <path d="M 329.925733 331.006692 
L 220.288121 310.500353 
" clip-path="url(#pfd8b779e2a)" style="fill: #444444; stroke: #444444; stroke-width: 0.3"/>
    <path d="M 454.638078 375.832834 
L 334.733156 332.319148 
" clip-path="url(#pfd8b779e2a)" style="fill: #444444; stroke: #444444; stroke-width: 0.3"/>
    <path d="M 331.400328 329.167593 
L 281.935616 213.470876 
" clip-path="url(#pfd8b779e2a)" style="fill: #444444; stroke: #444444; stroke-width: 0.3"/>
    <path d="M 334.848279 331.882229 
L 452.379999 351.711765 
" clip-path="url(#pfd8b779e2a)" style="fill: #444444; stroke: #444444; stroke-width: 0.3"/>
    <path d="M 186.753236 318.798497 
L 329.892524 331.249668 
" clip-path="url(#pfd8b779e2a)" style="fill: #444444; stroke: #444444; stroke-width: 0.3"/>
    <path d="M 265.629016 381.832301 
L 330.387438 332.972057 
" clip-path="url(#pfd8b779e2a)" style="fill: #444444; stroke: #444444; stroke-width: 0.3"/>
    <path d="M 330.546349 333.162274 
L 227.734957 428.091867 
" clip-path="url(#pfd8b779e2a)" style="fill: #444444; stroke: #444444; stroke-width: 0.3"/>
    <path d="M 334.851899 331.860174 
L 491.111872 356.789229 
" clip-path="url(#pfd8b779e2a)" style="fill: #444444; stroke: #444444; stroke-width: 0.3"/>
    <path d="M 334.630719 332.560981 
L 470.713022 398.838156 
" clip-path="url(#pfd8b779e2a)" style="fill: #444444; stroke: #444444; stroke-width: 0.3"/>
    <path d="M 330.771157 329.555405 
L 267.018983 253.97998 
" clip-path="url(#pfd8b779e2a)" style="fill: #444444; stroke: #444444; stroke-width: 0.3"/>
    <path d="M 329.897396 331.199519 
L 262.301848 323.944401 
" clip-path="url(#pfd8b779e2a)" style="fill: #444444; stroke: #444444; stroke-width: 0.3"/>
    <path d="M 332.978727 329.038302 
L 351.686108 252.77715 
" clip-path="url(#pfd8b779e2a)" style="fill: #444444; stroke: #444444; stroke-width: 0.3"/>
    <path d="M 212.311369 340.315342 
L 329.88988 331.650062 
" clip-path="url(#pfd8b779e2a)" style="fill: #444444; stroke: #444444; stroke-width: 0.3"/>
    <path d="M 331.625951 329.083733 
L 310.037086 261.149999 
" clip-path="url(#pfd8b779e2a)" style="fill: #444444; stroke: #444444; stroke-width: 0.3"/>
    <path d="M 332.034709 328.990712 
L 315.085239 208.557403 
" clip-path="url(#pfd8b779e2a)" style="fill: #444444; stroke: #444444; stroke-width: 0.3"/>
    <path d="M 334.050627 333.328952 
L 411.732482 420.100978 
" clip-path="url(#pfd8b779e2a)" style="fill: #444444; stroke: #444444; stroke-width: 0.3"/>
    <path d="M 331.434395 329.153325 
L 293.045157 235.560345 
" clip-path="url(#pfd8b779e2a)" style="fill: #444444; stroke: #444444; stroke-width: 0.3"/>
    <path d="M 331.190937 333.663746 
L 308.649477 375.212172 
" clip-path="url(#pfd8b779e2a)" style="fill: #444444; stroke: #444444; stroke-width: 0.3"/>
    <path d="M 333.921188 329.495442 
L 401.512803 242.883949 
" clip-path="url(#pfd8b779e2a)" style="fill: #444444; stroke: #444444; stroke-width: 0.3"/>
    <path d="M 330.061545 330.538796 
L 177.326488 269.517797 
" clip-path="url(#pfd8b779e2a)" style="fill: #444444; stroke: #444444; stroke-width: 0.3"/>
    <path d="M 334.881577 331.378543 
L 456.46597 327.107197 
" clip-path="url(#pfd8b779e2a)" style="fill: #444444; stroke: #444444; stroke-width: 0.3"/>
    <path d="M 334.406025 332.935278 
L 453.728664 419.583135 
" clip-path="url(#pfd8b779e2a)" style="fill: #444444; stroke: #444444; stroke-width: 0.3"/>
    <path d="M 329.911604 331.089998 
L 157.679582 304.865638 
" clip-path="url(#pfd8b779e2a)" style="fill: #444444; stroke: #444444; stroke-width: 0.3"/>
    <path d="M 447.991132 300.102925 
L 334.795906 330.811748 
" clip-path="url(#pfd8b779e2a)" style="fill: #444444; stroke: #444444; stroke-width: 0.3"/>
    <path d="M 332.291896 328.96798 
L 328.721121 231.174955 
" clip-path="url(#pfd8b779e2a)" style="fill: #444444; stroke: #444444; stroke-width: 0.3"/>
    <path d="M 430.771555 437.586971 
L 334.082834 333.299609 
" clip-path="url(#pfd8b779e2a)" style="fill: #444444; stroke: #444444; stroke-width: 0.3"/>
    <path d="M 330.880612 329.468198 
L 254.456024 227.834516 
" clip-path="url(#pfd8b779e2a)" style="fill: #444444; stroke: #444444; stroke-width: 0.3"/>
    <path d="M 330.10187 332.489009 
L 223.388089 380.329262 
" clip-path="url(#pfd8b779e2a)" style="fill: #444444; stroke: #444444; stroke-width: 0.3"/>
    <path d="M 333.350811 333.771434 
L 373.769985 430.053073 
" clip-path="url(#pfd8b779e2a)" style="fill: #444444; stroke: #444444; stroke-width: 0.3"/>
    <path d="M 252.955742 442.857888 
L 330.931694 333.501841 
" clip-path="url(#pfd8b779e2a)" style="fill: #444444; stroke: #444444; stroke-width: 0.3"/>
    <path d="M 333.892733 333.459068 
L 386.198766 402.505175 
" clip-path="url(#pfd8b779e2a)" style="fill: #444444; stroke: #444444; stroke-width: 0.3"/>
    <path d="M 333.18581 329.098682 
L 347.385987 287.213592 
" clip-path="url(#pfd8b779e2a)" style="fill: #444444; stroke: #444444; stroke-width: 0.3"/>
    <path d="M 330.35071 332.922101 
L 174.547049 444.52206 
" clip-path="url(#pfd8b779e2a)" style="fill: #444444; stroke: #444444; stroke-width: 0.3"/>
    <path d="M 330.154923 330.332674 
L 248.208272 288.640587 
" clip-path="url(#pfd8b779e2a)" style="fill: #444444; stroke: #444444; stroke-width: 0.3"/>
    <path d="M 334.78271 332.167717 
L 396.2078 350.122293 
" clip-path="url(#pfd8b779e2a)" style="fill: #444444; stroke: #444444; stroke-width: 0.3"/>
    <path d="M 331.236254 333.687734 
L 281.180835 430.642487 
" clip-path="url(#pfd8b779e2a)" style="fill: #444444; stroke: #444444; stroke-width: 0.3"/>
    <path d="M 330.794685 329.535803 
L 219.379402 194.126535 
" clip-path="url(#pfd8b779e2a)" style="fill: #444444; stroke: #444444; stroke-width: 0.3"/>
    <path d="M 333.487988 333.708917 
L 357.223471 381.885882 
" clip-path="url(#pfd8b779e2a)" style="fill: #444444; stroke: #444444; stroke-width: 0.3"/>
    <path d="M 334.861864 331.141014 
L 509.073885 308.278044 
" clip-path="url(#pfd8b779e2a)" style="fill: #444444; stroke: #444444; stroke-width: 0.3"/>
    <path d="M 332.722679 333.943148 
L 343.734463 414.265676 
" clip-path="url(#pfd8b779e2a)" style="fill: #444444; stroke: #444444; stroke-width: 0.3"/>
    <path d="M 334.002012 329.561274 
L 386.310016 268.007532 
" clip-path="url(#pfd8b779e2a)" style="fill: #444444; stroke: #444444; stroke-width: 0.3"/>
    <path d="M 384.124818 176.176308 
L 333.173391 329.094508 
" clip-path="url(#pfd8b779e2a)" style="fill: #444444; stroke: #444444; stroke-width: 0.3"/>
    <path d="M 330.187686 332.662173 
L 196.422797 405.524241 
" clip-path="url(#pfd8b779e2a)" style="fill: #444444; stroke: #444444; stroke-width: 0.3"/>
    <path d="M 329.965017 330.831665 
L 179.882876 291.441378 
" clip-path="url(#pfd8b779e2a)" style="fill: #444444; stroke: #444444; stroke-width: 0.3"/>
    <path d="M 334.595502 330.302115 
L 404.689193 293.417409 
" clip-path="url(#pfd8b779e2a)" style="fill: #444444; stroke: #444444; stroke-width: 0.3"/>
    <path d="M 397.094875 217.322065 
L 333.616083 329.291505 
" clip-path="url(#pfd8b779e2a)" style="fill: #444444; stroke: #444444; stroke-width: 0.3"/>
    <path d="M 488.516175 325.559366 
L 334.881332 331.371801 
" clip-path="url(#pfd8b779e2a)" style="fill: #444444; stroke: #444444; stroke-width: 0.3"/>
    <path d="M 334.682488 332.44759 
L 523.810627 413.159527 
" clip-path="url(#pfd8b779e2a)" style="fill: #444444; stroke: #444444; stroke-width: 0.3"/>
    <path d="M 334.39263 329.979081 
L 426.519782 261.795979 
" clip-path="url(#pfd8b779e2a)" style="fill: #444444; stroke: #444444; stroke-width: 0.3"/>
    <path d="M 333.109464 333.858474 
L 370.574228 457.245697 
" clip-path="url(#pfd8b779e2a)" style="fill: #444444; stroke: #444444; stroke-width: 0.3"/>
    <path d="M 330.348311 330.013884 
L 234.273193 261.436177 
" clip-path="url(#pfd8b779e2a)" style="fill: #444444; stroke: #444444; stroke-width: 0.3"/>
    <path d="M 330.717618 333.330747 
L 261.647026 410.651255 
" clip-path="url(#pfd8b779e2a)" style="fill: #444444; stroke: #444444; stroke-width: 0.3"/>
    <path d="M 334.746505 330.651206 
L 492.453931 276.259401 
" clip-path="url(#pfd8b779e2a)" style="fill: #444444; stroke: #444444; stroke-width: 0.3"/>
    <path d="M 329.969541 332.117963 
L 248.369688 354.14929 
" clip-path="url(#pfd8b779e2a)" style="fill: #444444; stroke: #444444; stroke-width: 0.3"/>
    <path d="M 330.030879 332.313056 
L 178.015571 387.034328 
" clip-path="url(#pfd8b779e2a)" style="fill: #444444; stroke: #444444; stroke-width: 0.3"/>
    <path d="M 331.498881 333.804717 
L 286.001979 454.123034 
" clip-path="url(#pfd8b779e2a)" style="fill: #444444; stroke: #444444; stroke-width: 0.3"/>
    <path d="M 415.243787 322.828741 
L 334.869645 331.207115 
" clip-path="url(#pfd8b779e2a)" style="fill: #444444; stroke: #444444; stroke-width: 0.3"/>
    <path d="M 329.893112 331.689627 
L 174.448554 345.630383 
" clip-path="url(#pfd8b779e2a)" style="fill: #444444; stroke: #444444; stroke-width: 0.3"/>
    <path d="M 332.136866 333.954158 
L 319.701427 459.587143 
" clip-path="url(#pfd8b779e2a)" style="fill: #444444; stroke: #444444; stroke-width: 0.3"/>
    <path d="M 334.879781 331.595455 
L 510.085708 340.657989 
" clip-path="url(#pfd8b779e2a)" style="fill: #444444; stroke: #444444; stroke-width: 0.3"/>
    <path d="M 330.337375 332.903303 
L 227.673999 405.01695 
" clip-path="url(#pfd8b779e2a)" style="fill: #444444; stroke: #444444; stroke-width: 0.3"/>
    <path d="M 334.820018 330.908173 
L 483.554359 296.842351 
" clip-path="url(#pfd8b779e2a)" style="fill: #444444; stroke: #444444; stroke-width: 0.3"/>
    <path d="M 334.592684 330.296777 
L 474.313683 256.341506 
" clip-path="url(#pfd8b779e2a)" style="fill: #444444; stroke: #444444; stroke-width: 0.3"/>
    <path d="M 332.751533 328.99361 
L 350.468929 210.078773 
" clip-path="url(#pfd8b779e2a)" style="fill: #444444; stroke: #444444; stroke-width: 0.3"/>
    <path d="M 333.646192 333.623778 
L 400.039471 447.030472 
" clip-path="url(#pfd8b779e2a)" style="fill: #444444; stroke: #444444; stroke-width: 0.3"/>
    <path d="M 334.083444 329.633587 
L 428.94017 227.390433 
" clip-path="url(#pfd8b779e2a)" style="fill: #444444; stroke: #444444; stroke-width: 0.3"/>
    <path d="M 333.231134 329.114535 
L 369.410785 228.778351 
" clip-path="url(#pfd8b779e2a)" style="fill: #444444; stroke: #444444; stroke-width: 0.3"/>
    <path d="M 334.781843 332.170675 
L 490.896197 378.012009 
" clip-path="url(#pfd8b779e2a)" style="fill: #444444; stroke: #444444; stroke-width: 0.3"/>
    <path d="M 334.380967 329.96345 
L 451.15244 242.123054 
" clip-path="url(#pfd8b779e2a)" style="fill: #444444; stroke: #444444; stroke-width: 0.3"/>
    <path d="M 330.503106 329.818422 
L 225.004034 237.344993 
" clip-path="url(#pfd8b779e2a)" style="fill: #444444; stroke: #444444; stroke-width: 0.3"/>
    <path d="M 334.653392 330.419482 
L 453.358707 275.68391 
" clip-path="url(#pfd8b779e2a)" style="fill: #444444; stroke: #444444; stroke-width: 0.3"/>
    <path d="M 289.128803 287.953274 
L 330.620631 329.693285 
" clip-path="url(#pfd8b779e2a)" style="fill: #444444; stroke: #444444; stroke-width: 0.3"/>
    <path d="M 345.205232 447.318251 
L 332.658131 333.951143 
" clip-path="url(#pfd8b779e2a)" style="fill: #444444; stroke: #444444; stroke-width: 0.3"/>
    <path d="M 304.588295 406.618702 
L 331.515914 333.811087 
" clip-path="url(#pfd8b779e2a)" style="fill: #444444; stroke: #444444; stroke-width: 0.3"/>
    <path d="M 330.070776 330.516015 
L 210.250177 281.273484 
" clip-path="url(#pfd8b779e2a)" style="fill: #444444; stroke: #444444; stroke-width: 0.3"/>
    <path d="M 646.153296 465.45362 
L 528.408789 415.123426 
" clip-path="url(#pfd8b779e2a)" style="fill: #444444; stroke: #444444; stroke-width: 0.3"/>
    <path d="M 73.579775 516.899572 
L 170.482776 447.434393 
" clip-path="url(#pfd8b779e2a)" style="fill: #444444; stroke: #444444; stroke-width: 0.3"/>
    <path d="M 147.398721 105.665198 
L 216.213327 190.25668 
" clip-path="url(#pfd8b779e2a)" style="fill: #444444; stroke: #444444; stroke-width: 0.3"/>
   </g>
   <g id="VertexCollection_1">
    <path d="M 145.821079 106.225856 
C 146.484087 106.225856 147.120029 105.962441 147.588846 105.493623 
C 148.057663 105.024806 148.321079 104.388864 148.321079 103.725856 
C 148.321079 103.062849 148.057663 102.426907 147.588846 101.958089 
C 147.120029 101.489272 146.484087 101.225856 145.821079 101.225856 
C 145.158071 101.225856 144.522129 101.489272 144.053312 101.958089 
C 143.584495 102.426907 143.321079 103.062849 143.321079 103.725856 
C 143.321079 104.388864 143.584495 105.024806 144.053312 105.493623 
C 144.522129 105.962441 145.158071 106.225856 145.821079 106.225856 
z
" clip-path="url(#pfd8b779e2a)" style="fill: #a6d854; stroke: #000000"/>
    <path d="M 251.504317 447.393414 
C 252.167325 447.393414 252.803267 447.129998 253.272084 446.661181 
C 253.740902 446.192364 254.004317 445.556422 254.004317 444.893414 
C 254.004317 444.230406 253.740902 443.594464 253.272084 443.125647 
C 252.803267 442.65683 252.167325 442.393414 251.504317 442.393414 
C 250.84131 442.393414 250.205368 442.65683 249.73655 443.125647 
C 249.267733 443.594464 249.004317 444.230406 249.004317 444.893414 
C 249.004317 445.556422 249.267733 446.192364 249.73655 446.661181 
C 250.205368 447.129998 250.84131 447.393414 251.504317 447.393414 
z
" clip-path="url(#pfd8b779e2a)" style="fill: #a6d854; stroke: #000000"/>
    <path d="M 345.480245 452.303079 
C 346.143252 452.303079 346.779194 452.039663 347.248012 451.570845 
C 347.716829 451.102028 347.980245 450.466086 347.980245 449.803079 
C 347.980245 449.140071 347.716829 448.504129 347.248012 448.035312 
C 346.779194 447.566494 346.143252 447.303079 345.480245 447.303079 
C 344.817237 447.303079 344.181295 447.566494 343.712478 448.035312 
C 343.24366 448.504129 342.980245 449.140071 342.980245 449.803079 
C 342.980245 450.466086 343.24366 451.102028 343.712478 451.570845 
C 344.181295 452.039663 344.817237 452.303079 345.480245 452.303079 
z
" clip-path="url(#pfd8b779e2a)" style="fill: #a6d854; stroke: #000000"/>
    <path d="M 287.366315 288.680243 
C 288.029323 288.680243 288.665265 288.416828 289.134082 287.94801 
C 289.6029 287.479193 289.866315 286.843251 289.866315 286.180243 
C 289.866315 285.517236 289.6029 284.881294 289.134082 284.412476 
C 288.665265 283.943659 288.029323 283.680243 287.366315 283.680243 
C 286.703308 283.680243 286.067366 283.943659 285.598548 284.412476 
C 285.129731 284.881294 284.866315 285.517236 284.866315 286.180243 
C 284.866315 286.843251 285.129731 287.479193 285.598548 287.94801 
C 286.067366 288.416828 286.703308 288.680243 287.366315 288.680243 
z
" clip-path="url(#pfd8b779e2a)" style="fill: #a6d854; stroke: #000000"/>
    <path d="M 414.901056 379.87721 
C 415.564064 379.87721 416.200006 379.613794 416.668823 379.144977 
C 417.137641 378.67616 417.401056 378.040218 417.401056 377.37721 
C 417.401056 376.714202 417.137641 376.07826 416.668823 375.609443 
C 416.200006 375.140626 415.564064 374.87721 414.901056 374.87721 
C 414.238049 374.87721 413.602107 375.140626 413.133289 375.609443 
C 412.664472 376.07826 412.401056 376.714202 412.401056 377.37721 
C 412.401056 378.040218 412.664472 378.67616 413.133289 379.144977 
C 413.602107 379.613794 414.238049 379.87721 414.901056 379.87721 
z
" clip-path="url(#pfd8b779e2a)" style="fill: #a6d854; stroke: #000000"/>
    <path d="M 432.471271 441.920265 
C 433.134279 441.920265 433.770221 441.656849 434.239038 441.188032 
C 434.707855 440.719214 434.971271 440.083272 434.971271 439.420265 
C 434.971271 438.757257 434.707855 438.121315 434.239038 437.652498 
C 433.770221 437.18368 433.134279 436.920265 432.471271 436.920265 
C 431.808263 436.920265 431.172321 437.18368 430.703504 437.652498 
C 430.234687 438.121315 429.971271 438.757257 429.971271 439.420265 
C 429.971271 440.083272 430.234687 440.719214 430.703504 441.188032 
C 431.172321 441.656849 431.808263 441.920265 432.471271 441.920265 
z
" clip-path="url(#pfd8b779e2a)" style="fill: #a6d854; stroke: #000000"/>
    <path d="M 194.563896 369.210764 
C 195.226904 369.210764 195.862846 368.947348 196.331663 368.478531 
C 196.800481 368.009714 197.063896 367.373772 197.063896 366.710764 
C 197.063896 366.047756 196.800481 365.411814 196.331663 364.942997 
C 195.862846 364.47418 195.226904 364.210764 194.563896 364.210764 
C 193.900889 364.210764 193.264947 364.47418 192.796129 364.942997 
C 192.327312 365.411814 192.063896 366.047756 192.063896 366.710764 
C 192.063896 367.373772 192.327312 368.009714 192.796129 368.478531 
C 193.264947 368.947348 193.900889 369.210764 194.563896 369.210764 
z
" clip-path="url(#pfd8b779e2a)" style="fill: #a6d854; stroke: #000000"/>
    <path d="M 303.72109 411.463474 
C 304.384098 411.463474 305.02004 411.200058 305.488857 410.73124 
C 305.957674 410.262423 306.22109 409.626481 306.22109 408.963474 
C 306.22109 408.300466 305.957674 407.664524 305.488857 407.195707 
C 305.02004 406.726889 304.384098 406.463474 303.72109 406.463474 
C 303.058082 406.463474 302.42214 406.726889 301.953323 407.195707 
C 301.484506 407.664524 301.22109 408.300466 301.22109 408.963474 
C 301.22109 409.626481 301.484506 410.262423 301.953323 410.73124 
C 302.42214 411.200058 303.058082 411.463474 303.72109 411.463474 
z
" clip-path="url(#pfd8b779e2a)" style="fill: #a6d854; stroke: #000000"/>
    <path d="M 263.633335 385.838042 
C 264.296343 385.838042 264.932285 385.574626 265.401102 385.105809 
C 265.869919 384.636992 266.133335 384.00105 266.133335 383.338042 
C 266.133335 382.675034 265.869919 382.039093 265.401102 381.570275 
C 264.932285 381.101458 264.296343 380.838042 263.633335 380.838042 
C 262.970327 380.838042 262.334385 381.101458 261.865568 381.570275 
C 261.396751 382.039093 261.133335 382.675034 261.133335 383.338042 
C 261.133335 384.00105 261.396751 384.636992 261.865568 385.105809 
C 262.334385 385.574626 262.970327 385.838042 263.633335 385.838042 
z
" clip-path="url(#pfd8b779e2a)" style="fill: #a6d854; stroke: #000000"/>
    <path d="M 417.730313 325.06954 
C 418.393321 325.06954 419.029263 324.806124 419.49808 324.337307 
C 419.966897 323.86849 420.230313 323.232548 420.230313 322.56954 
C 420.230313 321.906532 419.966897 321.27059 419.49808 320.801773 
C 419.029263 320.332956 418.393321 320.06954 417.730313 320.06954 
C 417.067306 320.06954 416.431364 320.332956 415.962546 320.801773 
C 415.493729 321.27059 415.230313 321.906532 415.230313 322.56954 
C 415.230313 323.232548 415.493729 323.86849 415.962546 324.337307 
C 416.431364 324.806124 417.067306 325.06954 417.730313 325.06954 
z
" clip-path="url(#pfd8b779e2a)" style="fill: #a6d854; stroke: #000000"/>
    <path d="M 450.403919 301.948358 
C 451.066927 301.948358 451.702869 301.684942 452.171686 301.216125 
C 452.640503 300.747307 452.903919 300.111366 452.903919 299.448358 
C 452.903919 298.78535 452.640503 298.149408 452.171686 297.680591 
C 451.702869 297.211774 451.066927 296.948358 450.403919 296.948358 
C 449.740911 296.948358 449.104969 297.211774 448.636152 297.680591 
C 448.167335 298.149408 447.903919 298.78535 447.903919 299.448358 
C 447.903919 300.111366 448.167335 300.747307 448.636152 301.216125 
C 449.104969 301.684942 449.740911 301.948358 450.403919 301.948358 
z
" clip-path="url(#pfd8b779e2a)" style="fill: #a6d854; stroke: #000000"/>
    <path d="M 209.818131 342.999088 
C 210.481139 342.999088 211.11708 342.735673 211.585898 342.266855 
C 212.054715 341.798038 212.318131 341.162096 212.318131 340.499088 
C 212.318131 339.836081 212.054715 339.200139 211.585898 338.731322 
C 211.11708 338.262504 210.481139 337.999088 209.818131 337.999088 
C 209.155123 337.999088 208.519181 338.262504 208.050364 338.731322 
C 207.581547 339.200139 207.318131 339.836081 207.318131 340.499088 
C 207.318131 341.162096 207.581547 341.798038 208.050364 342.266855 
C 208.519181 342.735673 209.155123 342.999088 209.818131 342.999088 
z
" clip-path="url(#pfd8b779e2a)" style="fill: #a6d854; stroke: #000000"/>
    <path d="M 384.91509 176.3045 
C 385.578098 176.3045 386.21404 176.041085 386.682857 175.572267 
C 387.151674 175.10345 387.41509 174.467508 387.41509 173.8045 
C 387.41509 173.141493 387.151674 172.505551 386.682857 172.036733 
C 386.21404 171.567916 385.578098 171.3045 384.91509 171.3045 
C 384.252082 171.3045 383.61614 171.567916 383.147323 172.036733 
C 382.678506 172.505551 382.41509 173.141493 382.41509 173.8045 
C 382.41509 174.467508 382.678506 175.10345 383.147323 175.572267 
C 383.61614 176.041085 384.252082 176.3045 384.91509 176.3045 
z
" clip-path="url(#pfd8b779e2a)" style="fill: #8da0cb; stroke: #000000"/>
    <path d="M 434.878775 402.936224 
C 435.541783 402.936224 436.177725 402.672808 436.646542 402.203991 
C 437.115359 401.735174 437.378775 401.099232 437.378775 400.436224 
C 437.378775 399.773216 437.115359 399.137274 436.646542 398.668457 
C 436.177725 398.19964 435.541783 397.936224 434.878775 397.936224 
C 434.215767 397.936224 433.579825 398.19964 433.111008 398.668457 
C 432.642191 399.137274 432.378775 399.773216 432.378775 400.436224 
C 432.378775 401.099232 432.642191 401.735174 433.111008 402.203991 
C 433.579825 402.672808 434.215767 402.936224 434.878775 402.936224 
z
" clip-path="url(#pfd8b779e2a)" style="fill: #a6d854; stroke: #000000"/>
    <path d="M 398.327839 217.647255 
C 398.990847 217.647255 399.626789 217.383839 400.095606 216.915022 
C 400.564423 216.446204 400.827839 215.810262 400.827839 215.147255 
C 400.827839 214.484247 400.564423 213.848305 400.095606 213.379488 
C 399.626789 212.91067 398.990847 212.647255 398.327839 212.647255 
C 397.664831 212.647255 397.02889 212.91067 396.560072 213.379488 
C 396.091255 213.848305 395.827839 214.484247 395.827839 215.147255 
C 395.827839 215.810262 396.091255 216.446204 396.560072 216.915022 
C 397.02889 217.383839 397.664831 217.647255 398.327839 217.647255 
z
" clip-path="url(#pfd8b779e2a)" style="fill: #a6d854; stroke: #000000"/>
    <path d="M 315.734013 439.311957 
C 316.39702 439.311957 317.032962 439.048541 317.50178 438.579724 
C 317.970597 438.110907 318.234013 437.474965 318.234013 436.811957 
C 318.234013 436.148949 317.970597 435.513007 317.50178 435.04419 
C 317.032962 434.575373 316.39702 434.311957 315.734013 434.311957 
C 315.071005 434.311957 314.435063 434.575373 313.966246 435.04419 
C 313.497428 435.513007 313.234013 436.148949 313.234013 436.811957 
C 313.234013 437.474965 313.497428 438.110907 313.966246 438.579724 
C 314.435063 439.048541 315.071005 439.311957 315.734013 439.311957 
z
" clip-path="url(#pfd8b779e2a)" style="fill: #a6d854; stroke: #000000"/>
    <path d="M 184.262641 321.081849 
C 184.925649 321.081849 185.561591 320.818434 186.030408 320.349616 
C 186.499225 319.880799 186.762641 319.244857 186.762641 318.581849 
C 186.762641 317.918842 186.499225 317.2829 186.030408 316.814083 
C 185.561591 316.345265 184.925649 316.081849 184.262641 316.081849 
C 183.599633 316.081849 182.963691 316.345265 182.494874 316.814083 
C 182.026057 317.2829 181.762641 317.918842 181.762641 318.581849 
C 181.762641 319.244857 182.026057 319.880799 182.494874 320.349616 
C 182.963691 320.818434 183.599633 321.081849 184.262641 321.081849 
z
" clip-path="url(#pfd8b779e2a)" style="fill: #a6d854; stroke: #000000"/>
    <path d="M 491.014388 327.964852 
C 491.677395 327.964852 492.313337 327.701436 492.782155 327.232619 
C 493.250972 326.763801 493.514388 326.127859 493.514388 325.464852 
C 493.514388 324.801844 493.250972 324.165902 492.782155 323.697085 
C 492.313337 323.228268 491.677395 322.964852 491.014388 322.964852 
C 490.35138 322.964852 489.715438 323.228268 489.246621 323.697085 
C 488.777803 324.165902 488.514388 324.801844 488.514388 325.464852 
C 488.514388 326.127859 488.777803 326.763801 489.246621 327.232619 
C 489.715438 327.701436 490.35138 327.964852 491.014388 327.964852 
z
" clip-path="url(#pfd8b779e2a)" style="fill: #a6d854; stroke: #000000"/>
    <path d="M 456.988116 379.185666 
C 457.651124 379.185666 458.287066 378.922251 458.755883 378.453433 
C 459.2247 377.984616 459.488116 377.348674 459.488116 376.685666 
C 459.488116 376.022659 459.2247 375.386717 458.755883 374.917899 
C 458.287066 374.449082 457.651124 374.185666 456.988116 374.185666 
C 456.325108 374.185666 455.689166 374.449082 455.220349 374.917899 
C 454.751532 375.386717 454.488116 376.022659 454.488116 376.685666 
C 454.488116 377.348674 454.751532 377.984616 455.220349 378.453433 
C 455.689166 378.922251 456.325108 379.185666 456.988116 379.185666 
z
" clip-path="url(#pfd8b779e2a)" style="fill: #a6d854; stroke: #000000"/>
    <path d="M 332.383119 333.966315 
C 333.046127 333.966315 333.682068 333.7029 334.150886 333.234082 
C 334.619703 332.765265 334.883119 332.129323 334.883119 331.466315 
C 334.883119 330.803308 334.619703 330.167366 334.150886 329.698548 
C 333.682068 329.229731 333.046127 328.966315 332.383119 328.966315 
C 331.720111 328.966315 331.084169 329.229731 330.615352 329.698548 
C 330.146535 330.167366 329.883119 330.803308 329.883119 331.466315 
C 329.883119 332.129323 330.146535 332.765265 330.615352 333.234082 
C 331.084169 333.7029 331.720111 333.966315 332.383119 333.966315 
z
" clip-path="url(#pfd8b779e2a)" style="fill: #66c2a5; stroke: #000000"/>
    <path d="M 458.964429 329.519424 
C 459.627437 329.519424 460.263378 329.256008 460.732196 328.787191 
C 461.201013 328.318374 461.464429 327.682432 461.464429 327.019424 
C 461.464429 326.356416 461.201013 325.720474 460.732196 325.251657 
C 460.263378 324.78284 459.627437 324.519424 458.964429 324.519424 
C 458.301421 324.519424 457.665479 324.78284 457.196662 325.251657 
C 456.727845 325.720474 456.464429 326.356416 456.464429 327.019424 
C 456.464429 327.682432 456.727845 328.318374 457.196662 328.787191 
C 457.665479 329.256008 458.301421 329.519424 458.964429 329.519424 
z
" clip-path="url(#pfd8b779e2a)" style="fill: #a6d854; stroke: #000000"/>
    <path d="M 511.55263 310.452743 
C 512.215638 310.452743 512.85158 310.189327 513.320397 309.72051 
C 513.789214 309.251692 514.05263 308.61575 514.05263 307.952743 
C 514.05263 307.289735 513.789214 306.653793 513.320397 306.184976 
C 512.85158 305.716158 512.215638 305.452743 511.55263 305.452743 
C 510.889622 305.452743 510.25368 305.716158 509.784863 306.184976 
C 509.316046 306.653793 509.05263 307.289735 509.05263 307.952743 
C 509.05263 308.61575 509.316046 309.251692 509.784863 309.72051 
C 510.25368 310.189327 510.889622 310.452743 511.55263 310.452743 
z
" clip-path="url(#pfd8b779e2a)" style="fill: #a6d854; stroke: #000000"/>
    <path d="M 245.95611 357.300937 
C 246.619118 357.300937 247.25506 357.037522 247.723877 356.568704 
C 248.192694 356.099887 248.45611 355.463945 248.45611 354.800937 
C 248.45611 354.13793 248.192694 353.501988 247.723877 353.03317 
C 247.25506 352.564353 246.619118 352.300937 245.95611 352.300937 
C 245.293102 352.300937 244.657161 352.564353 244.188343 353.03317 
C 243.719526 353.501988 243.45611 354.13793 243.45611 354.800937 
C 243.45611 355.463945 243.719526 356.099887 244.188343 356.568704 
C 244.657161 357.037522 245.293102 357.300937 245.95611 357.300937 
z
" clip-path="url(#pfd8b779e2a)" style="fill: #a6d854; stroke: #000000"/>
    <path d="M 207.937834 282.823183 
C 208.600842 282.823183 209.236784 282.559767 209.705601 282.09095 
C 210.174418 281.622132 210.437834 280.986191 210.437834 280.323183 
C 210.437834 279.660175 210.174418 279.024233 209.705601 278.555416 
C 209.236784 278.086599 208.600842 277.823183 207.937834 277.823183 
C 207.274826 277.823183 206.638884 278.086599 206.170067 278.555416 
C 205.70125 279.024233 205.437834 279.660175 205.437834 280.323183 
C 205.437834 280.986191 205.70125 281.622132 206.170067 282.09095 
C 206.638884 282.559767 207.274826 282.823183 207.937834 282.823183 
z
" clip-path="url(#pfd8b779e2a)" style="fill: #a6d854; stroke: #000000"/>
    <path d="M 350.837343 210.106068 
C 351.500351 210.106068 352.136293 209.842652 352.60511 209.373835 
C 353.073927 208.905018 353.337343 208.269076 353.337343 207.606068 
C 353.337343 206.94306 353.073927 206.307118 352.60511 205.838301 
C 352.136293 205.369484 351.500351 205.106068 350.837343 205.106068 
C 350.174335 205.106068 349.538393 205.369484 349.069576 205.838301 
C 348.600759 206.307118 348.337343 206.94306 348.337343 207.606068 
C 348.337343 208.269076 348.600759 208.905018 349.069576 209.373835 
C 349.538393 209.842652 350.174335 210.106068 350.837343 210.106068 
z
" clip-path="url(#pfd8b779e2a)" style="fill: #a6d854; stroke: #000000"/>
    <path d="M 171.958548 348.353695 
C 172.621555 348.353695 173.257497 348.090279 173.726315 347.621462 
C 174.195132 347.152645 174.458548 346.516703 174.458548 345.853695 
C 174.458548 345.190687 174.195132 344.554745 173.726315 344.085928 
C 173.257497 343.617111 172.621555 343.353695 171.958548 343.353695 
C 171.29554 343.353695 170.659598 343.617111 170.190781 344.085928 
C 169.721963 344.554745 169.458548 345.190687 169.458548 345.853695 
C 169.458548 346.516703 169.721963 347.152645 170.190781 347.621462 
C 170.659598 348.090279 171.29554 348.353695 171.958548 348.353695 
z
" clip-path="url(#pfd8b779e2a)" style="fill: #a6d854; stroke: #000000"/>
    <path d="M 259.981525 415.015687 
C 260.644533 415.015687 261.280475 414.752271 261.749292 414.283454 
C 262.218109 413.814637 262.481525 413.178695 262.481525 412.515687 
C 262.481525 411.852679 262.218109 411.216737 261.749292 410.74792 
C 261.280475 410.279103 260.644533 410.015687 259.981525 410.015687 
C 259.318517 410.015687 258.682575 410.279103 258.213758 410.74792 
C 257.744941 411.216737 257.481525 411.852679 257.481525 412.515687 
C 257.481525 413.178695 257.744941 413.814637 258.213758 414.283454 
C 258.682575 414.752271 259.318517 415.015687 259.981525 415.015687 
z
" clip-path="url(#pfd8b779e2a)" style="fill: #a6d854; stroke: #000000"/>
    <path d="M 259.816125 326.177605 
C 260.479133 326.177605 261.115074 325.914189 261.583892 325.445372 
C 262.052709 324.976554 262.316125 324.340613 262.316125 323.677605 
C 262.316125 323.014597 262.052709 322.378655 261.583892 321.909838 
C 261.115074 321.441021 260.479133 321.177605 259.816125 321.177605 
C 259.153117 321.177605 258.517175 321.441021 258.048358 321.909838 
C 257.579541 322.378655 257.316125 323.014597 257.316125 323.677605 
C 257.316125 324.340613 257.579541 324.976554 258.048358 325.445372 
C 258.517175 325.914189 259.153117 326.177605 259.816125 326.177605 
z
" clip-path="url(#pfd8b779e2a)" style="fill: #a6d854; stroke: #000000"/>
    <path d="M 223.124021 238.1971 
C 223.787029 238.1971 224.422971 237.933684 224.891788 237.464867 
C 225.360606 236.99605 225.624021 236.360108 225.624021 235.6971 
C 225.624021 235.034092 225.360606 234.39815 224.891788 233.929333 
C 224.422971 233.460516 223.787029 233.1971 223.124021 233.1971 
C 222.461014 233.1971 221.825072 233.460516 221.356254 233.929333 
C 220.887437 234.39815 220.624021 235.034092 220.624021 235.6971 
C 220.624021 236.360108 220.887437 236.99605 221.356254 237.464867 
C 221.825072 237.933684 222.461014 238.1971 223.124021 238.1971 
z
" clip-path="url(#pfd8b779e2a)" style="fill: #a6d854; stroke: #000000"/>
    <path d="M 175.004914 271.090277 
C 175.667922 271.090277 176.303863 270.826862 176.772681 270.358044 
C 177.241498 269.889227 177.504914 269.253285 177.504914 268.590277 
C 177.504914 267.92727 177.241498 267.291328 176.772681 266.82251 
C 176.303863 266.353693 175.667922 266.090277 175.004914 266.090277 
C 174.341906 266.090277 173.705964 266.353693 173.237147 266.82251 
C 172.76833 267.291328 172.504914 267.92727 172.504914 268.590277 
C 172.504914 269.253285 172.76833 269.889227 173.237147 270.358044 
C 173.705964 270.826862 174.341906 271.090277 175.004914 271.090277 
z
" clip-path="url(#pfd8b779e2a)" style="fill: #a6d854; stroke: #000000"/>
    <path d="M 493.294921 381.216369 
C 493.957929 381.216369 494.593871 380.952953 495.062688 380.484136 
C 495.531505 380.015319 495.794921 379.379377 495.794921 378.716369 
C 495.794921 378.053361 495.531505 377.417419 495.062688 376.948602 
C 494.593871 376.479785 493.957929 376.216369 493.294921 376.216369 
C 492.631913 376.216369 491.995972 376.479785 491.527154 376.948602 
C 491.058337 377.417419 490.794921 378.053361 490.794921 378.716369 
C 490.794921 379.379377 491.058337 380.015319 491.527154 380.484136 
C 491.995972 380.952953 492.631913 381.216369 493.294921 381.216369 
z
" clip-path="url(#pfd8b779e2a)" style="fill: #a6d854; stroke: #000000"/>
    <path d="M 403.050872 243.413075 
C 403.71388 243.413075 404.349822 243.149659 404.818639 242.680842 
C 405.287457 242.212025 405.550872 241.576083 405.550872 240.913075 
C 405.550872 240.250067 405.287457 239.614126 404.818639 239.145308 
C 404.349822 238.676491 403.71388 238.413075 403.050872 238.413075 
C 402.387865 238.413075 401.751923 238.676491 401.283105 239.145308 
C 400.814288 239.614126 400.550872 240.250067 400.550872 240.913075 
C 400.550872 241.576083 400.814288 242.212025 401.283105 242.680842 
C 401.751923 243.149659 402.387865 243.413075 403.050872 243.413075 
z
" clip-path="url(#pfd8b779e2a)" style="fill: #a6d854; stroke: #000000"/>
    <path d="M 252.953518 228.336399 
C 253.616525 228.336399 254.252467 228.072983 254.721285 227.604166 
C 255.190102 227.135348 255.453518 226.499407 255.453518 225.836399 
C 255.453518 225.173391 255.190102 224.537449 254.721285 224.068632 
C 254.252467 223.599815 253.616525 223.336399 252.953518 223.336399 
C 252.29051 223.336399 251.654568 223.599815 251.185751 224.068632 
C 250.716933 224.537449 250.453518 225.173391 250.453518 225.836399 
C 250.453518 226.499407 250.716933 227.135348 251.185751 227.604166 
C 251.654568 228.072983 252.29051 228.336399 252.953518 228.336399 
z
" clip-path="url(#pfd8b779e2a)" style="fill: #a6d854; stroke: #000000"/>
    <path d="M 221.10684 383.851955 
C 221.769848 383.851955 222.40579 383.58854 222.874607 383.119722 
C 223.343424 382.650905 223.60684 382.014963 223.60684 381.351955 
C 223.60684 380.688948 223.343424 380.053006 222.874607 379.584188 
C 222.40579 379.115371 221.769848 378.851955 221.10684 378.851955 
C 220.443832 378.851955 219.807891 379.115371 219.339073 379.584188 
C 218.870256 380.053006 218.60684 380.688948 218.60684 381.351955 
C 218.60684 382.014963 218.870256 382.650905 219.339073 383.119722 
C 219.807891 383.58854 220.443832 383.851955 221.10684 383.851955 
z
" clip-path="url(#pfd8b779e2a)" style="fill: #a6d854; stroke: #000000"/>
    <path d="M 285.117741 458.961436 
C 285.780749 458.961436 286.416691 458.69802 286.885508 458.229203 
C 287.354325 457.760385 287.617741 457.124443 287.617741 456.461436 
C 287.617741 455.798428 287.354325 455.162486 286.885508 454.693669 
C 286.416691 454.224851 285.780749 453.961436 285.117741 453.961436 
C 284.454733 453.961436 283.818791 454.224851 283.349974 454.693669 
C 282.881157 455.162486 282.617741 455.798428 282.617741 456.461436 
C 282.617741 457.124443 282.881157 457.760385 283.349974 458.229203 
C 283.818791 458.69802 284.454733 458.961436 285.117741 458.961436 
z
" clip-path="url(#pfd8b779e2a)" style="fill: #a6d854; stroke: #000000"/>
    <path d="M 476.523249 257.671968 
C 477.186257 257.671968 477.822199 257.408553 478.291016 256.939735 
C 478.759833 256.470918 479.023249 255.834976 479.023249 255.171968 
C 479.023249 254.508961 478.759833 253.873019 478.291016 253.404201 
C 477.822199 252.935384 477.186257 252.671968 476.523249 252.671968 
C 475.860241 252.671968 475.224299 252.935384 474.755482 253.404201 
C 474.286665 253.873019 474.023249 254.508961 474.023249 255.171968 
C 474.023249 255.834976 474.286665 256.470918 474.755482 256.939735 
C 475.224299 257.408553 475.860241 257.671968 476.523249 257.671968 
z
" clip-path="url(#pfd8b779e2a)" style="fill: #a6d854; stroke: #000000"/>
    <path d="M 225.898187 432.287825 
C 226.561194 432.287825 227.197136 432.02441 227.665954 431.555592 
C 228.134771 431.086775 228.398187 430.450833 228.398187 429.787825 
C 228.398187 429.124818 228.134771 428.488876 227.665954 428.020058 
C 227.197136 427.551241 226.561194 427.287825 225.898187 427.287825 
C 225.235179 427.287825 224.599237 427.551241 224.13042 428.020058 
C 223.661602 428.488876 223.398187 429.124818 223.398187 429.787825 
C 223.398187 430.450833 223.661602 431.086775 224.13042 431.555592 
C 224.599237 432.02441 225.235179 432.287825 225.898187 432.287825 
z
" clip-path="url(#pfd8b779e2a)" style="fill: #a6d854; stroke: #000000"/>
    <path d="M 648.452088 468.936245 
C 649.115096 468.936245 649.751038 468.672829 650.219855 468.204012 
C 650.688673 467.735195 650.952088 467.099253 650.952088 466.436245 
C 650.952088 465.773237 650.688673 465.137296 650.219855 464.668478 
C 649.751038 464.199661 649.115096 463.936245 648.452088 463.936245 
C 647.789081 463.936245 647.153139 464.199661 646.684321 464.668478 
C 646.215504 465.137296 645.952088 465.773237 645.952088 466.436245 
C 645.952088 467.099253 646.215504 467.735195 646.684321 468.204012 
C 647.153139 468.672829 647.789081 468.936245 648.452088 468.936245 
z
" clip-path="url(#pfd8b779e2a)" style="fill: #a6d854; stroke: #000000"/>
    <path d="M 512.58237 343.287129 
C 513.245378 343.287129 513.88132 343.023713 514.350137 342.554896 
C 514.818954 342.086079 515.08237 341.450137 515.08237 340.787129 
C 515.08237 340.124121 514.818954 339.488179 514.350137 339.019362 
C 513.88132 338.550545 513.245378 338.287129 512.58237 338.287129 
C 511.919362 338.287129 511.28342 338.550545 510.814603 339.019362 
C 510.345786 339.488179 510.08237 340.124121 510.08237 340.787129 
C 510.08237 341.450137 510.345786 342.086079 510.814603 342.554896 
C 511.28342 343.023713 511.919362 343.287129 512.58237 343.287129 
z
" clip-path="url(#pfd8b779e2a)" style="fill: #a6d854; stroke: #000000"/>
    <path d="M 292.096433 235.747356 
C 292.759441 235.747356 293.395383 235.48394 293.8642 235.015122 
C 294.333018 234.546305 294.596433 233.910363 294.596433 233.247356 
C 294.596433 232.584348 294.333018 231.948406 293.8642 231.479589 
C 293.395383 231.010771 292.759441 230.747356 292.096433 230.747356 
C 291.433426 230.747356 290.797484 231.010771 290.328666 231.479589 
C 289.859849 231.948406 289.596433 232.584348 289.596433 233.247356 
C 289.596433 233.910363 289.859849 234.546305 290.328666 235.015122 
C 290.797484 235.48394 291.433426 235.747356 292.096433 235.747356 
z
" clip-path="url(#pfd8b779e2a)" style="fill: #a6d854; stroke: #000000"/>
    <path d="M 348.188679 287.345959 
C 348.851687 287.345959 349.487628 287.082544 349.956446 286.613726 
C 350.425263 286.144909 350.688679 285.508967 350.688679 284.845959 
C 350.688679 284.182952 350.425263 283.54701 349.956446 283.078192 
C 349.487628 282.609375 348.851687 282.345959 348.188679 282.345959 
C 347.525671 282.345959 346.889729 282.609375 346.420912 283.078192 
C 345.952095 283.54701 345.688679 284.182952 345.688679 284.845959 
C 345.688679 285.508967 345.952095 286.144909 346.420912 286.613726 
C 346.889729 287.082544 347.525671 287.345959 348.188679 287.345959 
z
" clip-path="url(#pfd8b779e2a)" style="fill: #a6d854; stroke: #000000"/>
    <path d="M 151.622767 332.808556 
C 152.285775 332.808556 152.921717 332.54514 153.390534 332.076323 
C 153.859351 331.607505 154.122767 330.971563 154.122767 330.308556 
C 154.122767 329.645548 153.859351 329.009606 153.390534 328.540789 
C 152.921717 328.071971 152.285775 327.808556 151.622767 327.808556 
C 150.959759 327.808556 150.323818 328.071971 149.855 328.540789 
C 149.386183 329.009606 149.122767 329.645548 149.122767 330.308556 
C 149.122767 330.971563 149.386183 331.607505 149.855 332.076323 
C 150.323818 332.54514 150.959759 332.808556 151.622767 332.808556 
z
" clip-path="url(#pfd8b779e2a)" style="fill: #a6d854; stroke: #000000"/>
    <path d="M 344.074024 419.242508 
C 344.737031 419.242508 345.372973 418.979092 345.841791 418.510275 
C 346.310608 418.041458 346.574024 417.405516 346.574024 416.742508 
C 346.574024 416.0795 346.310608 415.443558 345.841791 414.974741 
C 345.372973 414.505924 344.737031 414.242508 344.074024 414.242508 
C 343.411016 414.242508 342.775074 414.505924 342.306257 414.974741 
C 341.83744 415.443558 341.574024 416.0795 341.574024 416.742508 
C 341.574024 417.405516 341.83744 418.041458 342.306257 418.510275 
C 342.775074 418.979092 343.411016 419.242508 344.074024 419.242508 
z
" clip-path="url(#pfd8b779e2a)" style="fill: #a6d854; stroke: #000000"/>
    <path d="M 371.300573 462.137856 
C 371.96358 462.137856 372.599522 461.87444 373.06834 461.405622 
C 373.537157 460.936805 373.800573 460.300863 373.800573 459.637856 
C 373.800573 458.974848 373.537157 458.338906 373.06834 457.870089 
C 372.599522 457.401271 371.96358 457.137856 371.300573 457.137856 
C 370.637565 457.137856 370.001623 457.401271 369.532806 457.870089 
C 369.063988 458.338906 368.800573 458.974848 368.800573 459.637856 
C 368.800573 460.300863 369.063988 460.936805 369.532806 461.405622 
C 370.001623 461.87444 370.637565 462.137856 371.300573 462.137856 
z
" clip-path="url(#pfd8b779e2a)" style="fill: #a6d854; stroke: #000000"/>
    <path d="M 280.952825 213.672154 
C 281.615833 213.672154 282.251775 213.408738 282.720592 212.939921 
C 283.18941 212.471104 283.452825 211.835162 283.452825 211.172154 
C 283.452825 210.509146 283.18941 209.873204 282.720592 209.404387 
C 282.251775 208.93557 281.615833 208.672154 280.952825 208.672154 
C 280.289818 208.672154 279.653876 208.93557 279.185058 209.404387 
C 278.716241 209.873204 278.452825 210.509146 278.452825 211.172154 
C 278.452825 211.835162 278.716241 212.471104 279.185058 212.939921 
C 279.653876 213.408738 280.289818 213.672154 280.952825 213.672154 
z
" clip-path="url(#pfd8b779e2a)" style="fill: #a6d854; stroke: #000000"/>
    <path d="M 455.62898 277.137076 
C 456.291987 277.137076 456.927929 276.873661 457.396747 276.404843 
C 457.865564 275.936026 458.12898 275.300084 458.12898 274.637076 
C 458.12898 273.974069 457.865564 273.338127 457.396747 272.869309 
C 456.927929 272.400492 456.291987 272.137076 455.62898 272.137076 
C 454.965972 272.137076 454.33003 272.400492 453.861213 272.869309 
C 453.392396 273.338127 453.12898 273.974069 453.12898 274.637076 
C 453.12898 275.300084 453.392396 275.936026 453.861213 276.404843 
C 454.33003 276.873661 454.965972 277.137076 455.62898 277.137076 
z
" clip-path="url(#pfd8b779e2a)" style="fill: #a6d854; stroke: #000000"/>
    <path d="M 158.154655 368.330606 
C 158.817663 368.330606 159.453605 368.06719 159.922422 367.598373 
C 160.39124 367.129556 160.654655 366.493614 160.654655 365.830606 
C 160.654655 365.167598 160.39124 364.531657 159.922422 364.062839 
C 159.453605 363.594022 158.817663 363.330606 158.154655 363.330606 
C 157.491648 363.330606 156.855706 363.594022 156.386888 364.062839 
C 155.918071 364.531657 155.654655 365.167598 155.654655 365.830606 
C 155.654655 366.493614 155.918071 367.129556 156.386888 367.598373 
C 156.855706 368.06719 157.491648 368.330606 158.154655 368.330606 
z
" clip-path="url(#pfd8b779e2a)" style="fill: #a6d854; stroke: #000000"/>
    <path d="M 485.991258 298.784208 
C 486.654266 298.784208 487.290208 298.520792 487.759025 298.051975 
C 488.227842 297.583158 488.491258 296.947216 488.491258 296.284208 
C 488.491258 295.6212 488.227842 294.985258 487.759025 294.516441 
C 487.290208 294.047624 486.654266 293.784208 485.991258 293.784208 
C 485.32825 293.784208 484.692308 294.047624 484.223491 294.516441 
C 483.754674 294.985258 483.491258 295.6212 483.491258 296.284208 
C 483.491258 296.947216 483.754674 297.583158 484.223491 298.051975 
C 484.692308 298.520792 485.32825 298.784208 485.991258 298.784208 
z
" clip-path="url(#pfd8b779e2a)" style="fill: #a6d854; stroke: #000000"/>
    <path d="M 245.980077 290.006945 
C 246.643084 290.006945 247.279026 289.743529 247.747844 289.274712 
C 248.216661 288.805895 248.480077 288.169953 248.480077 287.506945 
C 248.480077 286.843937 248.216661 286.207995 247.747844 285.739178 
C 247.279026 285.270361 246.643084 285.006945 245.980077 285.006945 
C 245.317069 285.006945 244.681127 285.270361 244.21231 285.739178 
C 243.743492 286.207995 243.480077 286.843937 243.480077 287.506945 
C 243.480077 288.169953 243.743492 288.805895 244.21231 289.274712 
C 244.681127 289.743529 245.317069 290.006945 245.980077 290.006945 
z
" clip-path="url(#pfd8b779e2a)" style="fill: #a6d854; stroke: #000000"/>
    <path d="M 352.281716 252.849136 
C 352.944724 252.849136 353.580666 252.58572 354.049483 252.116903 
C 354.5183 251.648086 354.781716 251.012144 354.781716 250.349136 
C 354.781716 249.686128 354.5183 249.050186 354.049483 248.581369 
C 353.580666 248.112552 352.944724 247.849136 352.281716 247.849136 
C 351.618709 247.849136 350.982767 248.112552 350.513949 248.581369 
C 350.045132 249.050186 349.781716 249.686128 349.781716 250.349136 
C 349.781716 251.012144 350.045132 251.648086 350.513949 252.116903 
C 350.982767 252.58572 351.618709 252.849136 352.281716 252.849136 
z
" clip-path="url(#pfd8b779e2a)" style="fill: #a6d854; stroke: #000000"/>
    <path d="M 319.455175 464.574985 
C 320.118183 464.574985 320.754125 464.311569 321.222942 463.842752 
C 321.691759 463.373935 321.955175 462.737993 321.955175 462.074985 
C 321.955175 461.411977 321.691759 460.776035 321.222942 460.307218 
C 320.754125 459.838401 320.118183 459.574985 319.455175 459.574985 
C 318.792167 459.574985 318.156225 459.838401 317.687408 460.307218 
C 317.218591 460.776035 316.955175 461.411977 316.955175 462.074985 
C 316.955175 462.737993 317.218591 463.373935 317.687408 463.842752 
C 318.156225 464.311569 318.792167 464.574985 319.455175 464.574985 
z
" clip-path="url(#pfd8b779e2a)" style="fill: #a6d854; stroke: #000000"/>
    <path d="M 455.75157 423.552097 
C 456.414577 423.552097 457.050519 423.288681 457.519337 422.819864 
C 457.988154 422.351047 458.25157 421.715105 458.25157 421.052097 
C 458.25157 420.389089 457.988154 419.753147 457.519337 419.28433 
C 457.050519 418.815513 456.414577 418.552097 455.75157 418.552097 
C 455.088562 418.552097 454.45262 418.815513 453.983803 419.28433 
C 453.514985 419.753147 453.25157 420.389089 453.25157 421.052097 
C 453.25157 421.715105 453.514985 422.351047 453.983803 422.819864 
C 454.45262 423.288681 455.088562 423.552097 455.75157 423.552097 
z
" clip-path="url(#pfd8b779e2a)" style="fill: #a6d854; stroke: #000000"/>
    <path d="M 155.208068 306.989321 
C 155.871075 306.989321 156.507017 306.725905 156.975834 306.257088 
C 157.444652 305.78827 157.708068 305.152329 157.708068 304.489321 
C 157.708068 303.826313 157.444652 303.190371 156.975834 302.721554 
C 156.507017 302.252737 155.871075 301.989321 155.208068 301.989321 
C 154.54506 301.989321 153.909118 302.252737 153.440301 302.721554 
C 152.971483 303.190371 152.708068 303.826313 152.708068 304.489321 
C 152.708068 305.152329 152.971483 305.78827 153.440301 306.257088 
C 153.909118 306.725905 154.54506 306.989321 155.208068 306.989321 
z
" clip-path="url(#pfd8b779e2a)" style="fill: #a6d854; stroke: #000000"/>
    <path d="M 526.109996 416.640801 
C 526.773004 416.640801 527.408946 416.377385 527.877763 415.908568 
C 528.346581 415.439751 528.609996 414.803809 528.609996 414.140801 
C 528.609996 413.477793 528.346581 412.841851 527.877763 412.373034 
C 527.408946 411.904217 526.773004 411.640801 526.109996 411.640801 
C 525.446989 411.640801 524.811047 411.904217 524.342229 412.373034 
C 523.873412 412.841851 523.609996 413.477793 523.609996 414.140801 
C 523.609996 414.803809 523.873412 415.439751 524.342229 415.908568 
C 524.811047 416.377385 525.446989 416.640801 526.109996 416.640801 
z
" clip-path="url(#pfd8b779e2a)" style="fill: #8da0cb; stroke: #000000"/>
    <path d="M 453.150288 243.120189 
C 453.813296 243.120189 454.449238 242.856774 454.918055 242.387956 
C 455.386872 241.919139 455.650288 241.283197 455.650288 240.620189 
C 455.650288 239.957182 455.386872 239.32124 454.918055 238.852422 
C 454.449238 238.383605 453.813296 238.120189 453.150288 238.120189 
C 452.48728 238.120189 451.851338 238.383605 451.382521 238.852422 
C 450.913704 239.32124 450.650288 239.957182 450.650288 240.620189 
C 450.650288 241.283197 450.913704 241.919139 451.382521 242.387956 
C 451.851338 242.856774 452.48728 243.120189 453.150288 243.120189 
z
" clip-path="url(#pfd8b779e2a)" style="fill: #a6d854; stroke: #000000"/>
    <path d="M 328.629898 231.17662 
C 329.292905 231.17662 329.928847 230.913205 330.397665 230.444387 
C 330.866482 229.97557 331.129898 229.339628 331.129898 228.67662 
C 331.129898 228.013613 330.866482 227.377671 330.397665 226.908853 
C 329.928847 226.440036 329.292905 226.17662 328.629898 226.17662 
C 327.96689 226.17662 327.330948 226.440036 326.862131 226.908853 
C 326.393314 227.377671 326.129898 228.013613 326.129898 228.67662 
C 326.129898 229.339628 326.393314 229.97557 326.862131 230.444387 
C 327.330948 230.913205 327.96689 231.17662 328.629898 231.17662 
z
" clip-path="url(#pfd8b779e2a)" style="fill: #a6d854; stroke: #000000"/>
    <path d="M 406.901575 294.753209 
C 407.564583 294.753209 408.200525 294.489793 408.669342 294.020976 
C 409.13816 293.552159 409.401575 292.916217 409.401575 292.253209 
C 409.401575 291.590201 409.13816 290.954259 408.669342 290.485442 
C 408.200525 290.016625 407.564583 289.753209 406.901575 289.753209 
C 406.238568 289.753209 405.602626 290.016625 405.133809 290.485442 
C 404.664991 290.954259 404.401575 291.590201 404.401575 292.253209 
C 404.401575 292.916217 404.664991 293.552159 405.133809 294.020976 
C 405.602626 294.489793 406.238568 294.753209 406.901575 294.753209 
z
" clip-path="url(#pfd8b779e2a)" style="fill: #a6d854; stroke: #000000"/>
    <path d="M 194.227364 409.220099 
C 194.890372 409.220099 195.526314 408.956683 195.995131 408.487866 
C 196.463949 408.019049 196.727364 407.383107 196.727364 406.720099 
C 196.727364 406.057091 196.463949 405.421149 195.995131 404.952332 
C 195.526314 404.483515 194.890372 404.220099 194.227364 404.220099 
C 193.564357 404.220099 192.928415 404.483515 192.459598 404.952332 
C 191.99078 405.421149 191.727364 406.057091 191.727364 406.720099 
C 191.727364 407.383107 191.99078 408.019049 192.459598 408.487866 
C 192.928415 408.956683 193.564357 409.220099 194.227364 409.220099 
z
" clip-path="url(#pfd8b779e2a)" style="fill: #a6d854; stroke: #000000"/>
    <path d="M 175.663331 390.381069 
C 176.326339 390.381069 176.962281 390.117653 177.431098 389.648836 
C 177.899915 389.180018 178.163331 388.544076 178.163331 387.881069 
C 178.163331 387.218061 177.899915 386.582119 177.431098 386.113302 
C 176.962281 385.644484 176.326339 385.381069 175.663331 385.381069 
C 175.000323 385.381069 174.364382 385.644484 173.895564 386.113302 
C 173.426747 386.582119 173.163331 387.218061 173.163331 387.881069 
C 173.163331 388.544076 173.426747 389.180018 173.895564 389.648836 
C 174.364382 390.117653 175.000323 390.381069 175.663331 390.381069 
z
" clip-path="url(#pfd8b779e2a)" style="fill: #a6d854; stroke: #000000"/>
    <path d="M 493.580653 359.683088 
C 494.24366 359.683088 494.879602 359.419672 495.34842 358.950855 
C 495.817237 358.482038 496.080653 357.846096 496.080653 357.183088 
C 496.080653 356.52008 495.817237 355.884138 495.34842 355.415321 
C 494.879602 354.946504 494.24366 354.683088 493.580653 354.683088 
C 492.917645 354.683088 492.281703 354.946504 491.812886 355.415321 
C 491.344068 355.884138 491.080653 356.52008 491.080653 357.183088 
C 491.080653 357.846096 491.344068 358.482038 491.812886 358.950855 
C 492.281703 359.419672 492.917645 359.683088 493.580653 359.683088 
z
" clip-path="url(#pfd8b779e2a)" style="fill: #a6d854; stroke: #000000"/>
    <path d="M 494.817317 277.944292 
C 495.480325 277.944292 496.116267 277.680876 496.585084 277.212059 
C 497.053901 276.743241 497.317317 276.107299 497.317317 275.444292 
C 497.317317 274.781284 497.053901 274.145342 496.585084 273.676525 
C 496.116267 273.207707 495.480325 272.944292 494.817317 272.944292 
C 494.15431 272.944292 493.518368 273.207707 493.04955 273.676525 
C 492.580733 274.145342 492.317317 274.781284 492.317317 275.444292 
C 492.317317 276.107299 492.580733 276.743241 493.04955 277.212059 
C 493.518368 277.680876 494.15431 277.944292 494.817317 277.944292 
z
" clip-path="url(#pfd8b779e2a)" style="fill: #a6d854; stroke: #000000"/>
    <path d="M 314.736829 208.5818 
C 315.399836 208.5818 316.035778 208.318384 316.504596 207.849567 
C 316.973413 207.380749 317.236829 206.744807 317.236829 206.0818 
C 317.236829 205.418792 316.973413 204.78285 316.504596 204.314033 
C 316.035778 203.845215 315.399836 203.5818 314.736829 203.5818 
C 314.073821 203.5818 313.437879 203.845215 312.969062 204.314033 
C 312.500244 204.78285 312.236829 205.418792 312.236829 206.0818 
C 312.236829 206.744807 312.500244 207.380749 312.969062 207.849567 
C 313.437879 208.318384 314.073821 208.5818 314.736829 208.5818 
z
" clip-path="url(#pfd8b779e2a)" style="fill: #a6d854; stroke: #000000"/>
    <path d="M 370.2588 228.926571 
C 370.921808 228.926571 371.55775 228.663155 372.026567 228.194338 
C 372.495384 227.72552 372.7588 227.089578 372.7588 226.426571 
C 372.7588 225.763563 372.495384 225.127621 372.026567 224.658804 
C 371.55775 224.189986 370.921808 223.926571 370.2588 223.926571 
C 369.595792 223.926571 368.95985 224.189986 368.491033 224.658804 
C 368.022216 225.127621 367.7588 225.763563 367.7588 226.426571 
C 367.7588 227.089578 368.022216 227.72552 368.491033 228.194338 
C 368.95985 228.663155 369.595792 228.926571 370.2588 228.926571 
z
" clip-path="url(#pfd8b779e2a)" style="fill: #a6d854; stroke: #000000"/>
    <path d="M 413.399991 424.463615 
C 414.062998 424.463615 414.69894 424.200199 415.167757 423.731382 
C 415.636575 423.262565 415.899991 422.626623 415.899991 421.963615 
C 415.899991 421.300607 415.636575 420.664665 415.167757 420.195848 
C 414.69894 419.727031 414.062998 419.463615 413.399991 419.463615 
C 412.736983 419.463615 412.101041 419.727031 411.632224 420.195848 
C 411.163406 420.664665 410.899991 421.300607 410.899991 421.963615 
C 410.899991 422.626623 411.163406 423.262565 411.632224 423.731382 
C 412.101041 424.200199 412.736983 424.463615 413.399991 424.463615 
z
" clip-path="url(#pfd8b779e2a)" style="fill: #a6d854; stroke: #000000"/>
    <path d="M 358.32834 386.628484 
C 358.991348 386.628484 359.62729 386.365068 360.096107 385.896251 
C 360.564924 385.427434 360.82834 384.791492 360.82834 384.128484 
C 360.82834 383.465476 360.564924 382.829534 360.096107 382.360717 
C 359.62729 381.8919 358.991348 381.628484 358.32834 381.628484 
C 357.665332 381.628484 357.02939 381.8919 356.560573 382.360717 
C 356.091756 382.829534 355.82834 383.465476 355.82834 384.128484 
C 355.82834 384.791492 356.091756 385.427434 356.560573 385.896251 
C 357.02939 386.365068 357.665332 386.628484 358.32834 386.628484 
z
" clip-path="url(#pfd8b779e2a)" style="fill: #a6d854; stroke: #000000"/>
    <path d="M 197.542434 253.767055 
C 198.205442 253.767055 198.841384 253.503639 199.310201 253.034822 
C 199.779018 252.566005 200.042434 251.930063 200.042434 251.267055 
C 200.042434 250.604047 199.779018 249.968106 199.310201 249.499288 
C 198.841384 249.030471 198.205442 248.767055 197.542434 248.767055 
C 196.879426 248.767055 196.243484 249.030471 195.774667 249.499288 
C 195.30585 249.968106 195.042434 250.604047 195.042434 251.267055 
C 195.042434 251.930063 195.30585 252.566005 195.774667 253.034822 
C 196.243484 253.503639 196.879426 253.767055 197.542434 253.767055 
z
" clip-path="url(#pfd8b779e2a)" style="fill: #a6d854; stroke: #000000"/>
    <path d="M 430.640496 228.057705 
C 431.303504 228.057705 431.939446 227.794289 432.408263 227.325472 
C 432.87708 226.856655 433.140496 226.220713 433.140496 225.557705 
C 433.140496 224.894697 432.87708 224.258755 432.408263 223.789938 
C 431.939446 223.321121 431.303504 223.057705 430.640496 223.057705 
C 429.977488 223.057705 429.341546 223.321121 428.872729 223.789938 
C 428.403912 224.258755 428.140496 224.894697 428.140496 225.557705 
C 428.140496 226.220713 428.403912 226.856655 428.872729 227.325472 
C 429.341546 227.794289 429.977488 228.057705 430.640496 228.057705 
z
" clip-path="url(#pfd8b779e2a)" style="fill: #a6d854; stroke: #000000"/>
    <path d="M 387.928909 268.60249 
C 388.591917 268.60249 389.227858 268.339074 389.696676 267.870257 
C 390.165493 267.40144 390.428909 266.765498 390.428909 266.10249 
C 390.428909 265.439482 390.165493 264.80354 389.696676 264.334723 
C 389.227858 263.865906 388.591917 263.60249 387.928909 263.60249 
C 387.265901 263.60249 386.629959 263.865906 386.161142 264.334723 
C 385.692325 264.80354 385.428909 265.439482 385.428909 266.10249 
C 385.428909 266.765498 385.692325 267.40144 386.161142 267.870257 
C 386.629959 268.339074 387.265901 268.60249 387.928909 268.60249 
z
" clip-path="url(#pfd8b779e2a)" style="fill: #a6d854; stroke: #000000"/>
    <path d="M 71.547912 520.856119 
C 72.210919 520.856119 72.846861 520.592703 73.315679 520.123886 
C 73.784496 519.655069 74.047912 519.019127 74.047912 518.356119 
C 74.047912 517.693111 73.784496 517.057169 73.315679 516.588352 
C 72.846861 516.119535 72.210919 515.856119 71.547912 515.856119 
C 70.884904 515.856119 70.248962 516.119535 69.780145 516.588352 
C 69.311327 517.057169 69.047912 517.693111 69.047912 518.356119 
C 69.047912 519.019127 69.311327 519.655069 69.780145 520.123886 
C 70.248962 520.592703 70.884904 520.856119 71.547912 520.856119 
z
" clip-path="url(#pfd8b779e2a)" style="fill: #a6d854; stroke: #000000"/>
    <path d="M 472.960622 402.432822 
C 473.62363 402.432822 474.259572 402.169406 474.728389 401.700589 
C 475.197206 401.231772 475.460622 400.59583 475.460622 399.932822 
C 475.460622 399.269814 475.197206 398.633872 474.728389 398.165055 
C 474.259572 397.696238 473.62363 397.432822 472.960622 397.432822 
C 472.297614 397.432822 471.661672 397.696238 471.192855 398.165055 
C 470.724038 398.633872 470.460622 399.269814 470.460622 399.932822 
C 470.460622 400.59583 470.724038 401.231772 471.192855 401.700589 
C 471.661672 402.169406 472.297614 402.432822 472.960622 402.432822 
z
" clip-path="url(#pfd8b779e2a)" style="fill: #a6d854; stroke: #000000"/>
    <path d="M 454.845159 354.627678 
C 455.508167 354.627678 456.144109 354.364262 456.612926 353.895445 
C 457.081743 353.426628 457.345159 352.790686 457.345159 352.127678 
C 457.345159 351.46467 457.081743 350.828728 456.612926 350.359911 
C 456.144109 349.891094 455.508167 349.627678 454.845159 349.627678 
C 454.182151 349.627678 453.546209 349.891094 453.077392 350.359911 
C 452.608575 350.828728 452.345159 351.46467 452.345159 352.127678 
C 452.345159 352.790686 452.608575 353.426628 453.077392 353.895445 
C 453.546209 354.364262 454.182151 354.627678 454.845159 354.627678 
z
" clip-path="url(#pfd8b779e2a)" style="fill: #a6d854; stroke: #000000"/>
    <path d="M 172.51464 448.477846 
C 173.177648 448.477846 173.81359 448.21443 174.282407 447.745613 
C 174.751224 447.276795 175.01464 446.640853 175.01464 445.977846 
C 175.01464 445.314838 174.751224 444.678896 174.282407 444.210079 
C 173.81359 443.741261 173.177648 443.477846 172.51464 443.477846 
C 171.851632 443.477846 171.21569 443.741261 170.746873 444.210079 
C 170.278056 444.678896 170.01464 445.314838 170.01464 445.977846 
C 170.01464 446.640853 170.278056 447.276795 170.746873 447.745613 
C 171.21569 448.21443 171.851632 448.477846 172.51464 448.477846 
z
" clip-path="url(#pfd8b779e2a)" style="fill: #8da0cb; stroke: #000000"/>
    <path d="M 265.407021 254.569069 
C 266.070029 254.569069 266.705971 254.305653 267.174788 253.836836 
C 267.643605 253.368019 267.907021 252.732077 267.907021 252.069069 
C 267.907021 251.406061 267.643605 250.770119 267.174788 250.301302 
C 266.705971 249.832485 266.070029 249.569069 265.407021 249.569069 
C 264.744013 249.569069 264.108071 249.832485 263.639254 250.301302 
C 263.170437 250.770119 262.907021 251.406061 262.907021 252.069069 
C 262.907021 252.732077 263.170437 253.368019 263.639254 253.836836 
C 264.108071 254.305653 264.744013 254.569069 265.407021 254.569069 
z
" clip-path="url(#pfd8b779e2a)" style="fill: #a6d854; stroke: #000000"/>
    <path d="M 217.830735 312.54073 
C 218.493742 312.54073 219.129684 312.277314 219.598502 311.808496 
C 220.067319 311.339679 220.330735 310.703737 220.330735 310.04073 
C 220.330735 309.377722 220.067319 308.74178 219.598502 308.272963 
C 219.129684 307.804145 218.493742 307.54073 217.830735 307.54073 
C 217.167727 307.54073 216.531785 307.804145 216.062968 308.272963 
C 215.59415 308.74178 215.330735 309.377722 215.330735 310.04073 
C 215.330735 310.703737 215.59415 311.339679 216.062968 311.808496 
C 216.531785 312.277314 217.167727 312.54073 217.830735 312.54073 
z
" clip-path="url(#pfd8b779e2a)" style="fill: #a6d854; stroke: #000000"/>
    <path d="M 428.529293 262.808744 
C 429.192301 262.808744 429.828243 262.545328 430.29706 262.076511 
C 430.765877 261.607694 431.029293 260.971752 431.029293 260.308744 
C 431.029293 259.645736 430.765877 259.009794 430.29706 258.540977 
C 429.828243 258.07216 429.192301 257.808744 428.529293 257.808744 
C 427.866285 257.808744 427.230343 258.07216 426.761526 258.540977 
C 426.292709 259.009794 426.029293 259.645736 426.029293 260.308744 
C 426.029293 260.971752 426.292709 261.607694 426.761526 262.076511 
C 427.230343 262.545328 427.866285 262.808744 428.529293 262.808744 
z
" clip-path="url(#pfd8b779e2a)" style="fill: #a6d854; stroke: #000000"/>
    <path d="M 217.790968 194.696022 
C 218.453976 194.696022 219.089918 194.432606 219.558735 193.963789 
C 220.027553 193.494972 220.290968 192.85903 220.290968 192.196022 
C 220.290968 191.533014 220.027553 190.897073 219.558735 190.428255 
C 219.089918 189.959438 218.453976 189.696022 217.790968 189.696022 
C 217.127961 189.696022 216.492019 189.959438 216.023201 190.428255 
C 215.554384 190.897073 215.290968 191.533014 215.290968 192.196022 
C 215.290968 192.85903 215.554384 193.494972 216.023201 193.963789 
C 216.492019 194.432606 217.127961 194.696022 217.790968 194.696022 
z
" clip-path="url(#pfd8b779e2a)" style="fill: #8da0cb; stroke: #000000"/>
    <path d="M 387.70838 406.997928 
C 388.371388 406.997928 389.00733 406.734512 389.476147 406.265694 
C 389.944964 405.796877 390.20838 405.160935 390.20838 404.497928 
C 390.20838 403.83492 389.944964 403.198978 389.476147 402.730161 
C 389.00733 402.261343 388.371388 401.997928 387.70838 401.997928 
C 387.045372 401.997928 386.409431 402.261343 385.940613 402.730161 
C 385.471796 403.198978 385.20838 403.83492 385.20838 404.497928 
C 385.20838 405.160935 385.471796 405.796877 385.940613 406.265694 
C 386.409431 406.734512 387.045372 406.997928 387.70838 406.997928 
z
" clip-path="url(#pfd8b779e2a)" style="fill: #a6d854; stroke: #000000"/>
    <path d="M 401.302545 451.687935 
C 401.965552 451.687935 402.601494 451.424519 403.070312 450.955702 
C 403.539129 450.486885 403.802545 449.850943 403.802545 449.187935 
C 403.802545 448.524927 403.539129 447.888985 403.070312 447.420168 
C 402.601494 446.951351 401.965552 446.687935 401.302545 446.687935 
C 400.639537 446.687935 400.003595 446.951351 399.534778 447.420168 
C 399.06596 447.888985 398.802545 448.524927 398.802545 449.187935 
C 398.802545 449.850943 399.06596 450.486885 399.534778 450.955702 
C 400.003595 451.424519 400.639537 451.687935 401.302545 451.687935 
z
" clip-path="url(#pfd8b779e2a)" style="fill: #a6d854; stroke: #000000"/>
    <path d="M 225.628256 408.953938 
C 226.291263 408.953938 226.927205 408.690522 227.396023 408.221705 
C 227.86484 407.752888 228.128256 407.116946 228.128256 406.453938 
C 228.128256 405.79093 227.86484 405.154988 227.396023 404.686171 
C 226.927205 404.217354 226.291263 403.953938 225.628256 403.953938 
C 224.965248 403.953938 224.329306 404.217354 223.860489 404.686171 
C 223.391672 405.154988 223.128256 405.79093 223.128256 406.453938 
C 223.128256 407.116946 223.391672 407.752888 223.860489 408.221705 
C 224.329306 408.690522 224.965248 408.953938 225.628256 408.953938 
z
" clip-path="url(#pfd8b779e2a)" style="fill: #a6d854; stroke: #000000"/>
    <path d="M 232.238385 262.483746 
C 232.901393 262.483746 233.537335 262.22033 234.006152 261.751513 
C 234.474969 261.282695 234.738385 260.646753 234.738385 259.983746 
C 234.738385 259.320738 234.474969 258.684796 234.006152 258.215979 
C 233.537335 257.747162 232.901393 257.483746 232.238385 257.483746 
C 231.575377 257.483746 230.939435 257.747162 230.470618 258.215979 
C 230.001801 258.684796 229.738385 259.320738 229.738385 259.983746 
C 229.738385 260.646753 230.001801 261.282695 230.470618 261.751513 
C 230.939435 262.22033 231.575377 262.483746 232.238385 262.483746 
z
" clip-path="url(#pfd8b779e2a)" style="fill: #a6d854; stroke: #000000"/>
    <path d="M 374.737677 434.858192 
C 375.400685 434.858192 376.036627 434.594776 376.505444 434.125959 
C 376.974261 433.657141 377.237677 433.0212 377.237677 432.358192 
C 377.237677 431.695184 376.974261 431.059242 376.505444 430.590425 
C 376.036627 430.121608 375.400685 429.858192 374.737677 429.858192 
C 374.074669 429.858192 373.438727 430.121608 372.96991 430.590425 
C 372.501093 431.059242 372.237677 431.695184 372.237677 432.358192 
C 372.237677 433.0212 372.501093 433.657141 372.96991 434.125959 
C 373.438727 434.594776 374.074669 434.858192 374.737677 434.858192 
z
" clip-path="url(#pfd8b779e2a)" style="fill: #a6d854; stroke: #000000"/>
    <path d="M 177.464774 293.306727 
C 178.127782 293.306727 178.763724 293.043311 179.232541 292.574494 
C 179.701358 292.105677 179.964774 291.469735 179.964774 290.806727 
C 179.964774 290.143719 179.701358 289.507777 179.232541 289.03896 
C 178.763724 288.570143 178.127782 288.306727 177.464774 288.306727 
C 176.801766 288.306727 176.165824 288.570143 175.697007 289.03896 
C 175.22819 289.507777 174.964774 290.143719 174.964774 290.806727 
C 174.964774 291.469735 175.22819 292.105677 175.697007 292.574494 
C 176.165824 293.043311 176.801766 293.306727 177.464774 293.306727 
z
" clip-path="url(#pfd8b779e2a)" style="fill: #a6d854; stroke: #000000"/>
    <path d="M 417.358429 76.223881 
C 418.021437 76.223881 418.657379 75.960465 419.126196 75.491648 
C 419.595013 75.022831 419.858429 74.386889 419.858429 73.723881 
C 419.858429 73.060873 419.595013 72.424931 419.126196 71.956114 
C 418.657379 71.487297 418.021437 71.223881 417.358429 71.223881 
C 416.695421 71.223881 416.059479 71.487297 415.590662 71.956114 
C 415.121845 72.424931 414.858429 73.060873 414.858429 73.723881 
C 414.858429 74.386889 415.121845 75.022831 415.590662 75.491648 
C 416.059479 75.960465 416.695421 76.223881 417.358429 76.223881 
z
" clip-path="url(#pfd8b779e2a)" style="fill: #a6d854; stroke: #000000"/>
    <path d="M 398.607391 353.323695 
C 399.270399 353.323695 399.906341 353.060279 400.375158 352.591462 
C 400.843976 352.122644 401.107391 351.486702 401.107391 350.823695 
C 401.107391 350.160687 400.843976 349.524745 400.375158 349.055928 
C 399.906341 348.58711 399.270399 348.323695 398.607391 348.323695 
C 397.944384 348.323695 397.308442 348.58711 396.839624 349.055928 
C 396.370807 349.524745 396.107391 350.160687 396.107391 350.823695 
C 396.107391 351.486702 396.370807 352.122644 396.839624 352.591462 
C 397.308442 353.060279 397.944384 353.323695 398.607391 353.323695 
z
" clip-path="url(#pfd8b779e2a)" style="fill: #a6d854; stroke: #000000"/>
    <path d="M 280.033969 435.363905 
C 280.696977 435.363905 281.332919 435.100489 281.801736 434.631672 
C 282.270554 434.162855 282.533969 433.526913 282.533969 432.863905 
C 282.533969 432.200897 282.270554 431.564955 281.801736 431.096138 
C 281.332919 430.627321 280.696977 430.363905 280.033969 430.363905 
C 279.370962 430.363905 278.73502 430.627321 278.266203 431.096138 
C 277.797385 431.564955 277.533969 432.200897 277.533969 432.863905 
C 277.533969 433.526913 277.797385 434.162855 278.266203 434.631672 
C 278.73502 435.100489 279.370962 435.363905 280.033969 435.363905 
z
" clip-path="url(#pfd8b779e2a)" style="fill: #a6d854; stroke: #000000"/>
    <path d="M 307.457295 379.909603 
C 308.120302 379.909603 308.756244 379.646187 309.225061 379.17737 
C 309.693879 378.708552 309.957295 378.072611 309.957295 377.409603 
C 309.957295 376.746595 309.693879 376.110653 309.225061 375.641836 
C 308.756244 375.173019 308.120302 374.909603 307.457295 374.909603 
C 306.794287 374.909603 306.158345 375.173019 305.689528 375.641836 
C 305.22071 376.110653 304.957295 376.746595 304.957295 377.409603 
C 304.957295 378.072611 305.22071 378.708552 305.689528 379.17737 
C 306.158345 379.646187 306.794287 379.909603 307.457295 379.909603 
z
" clip-path="url(#pfd8b779e2a)" style="fill: #a6d854; stroke: #000000"/>
    <path d="M 309.279918 261.267417 
C 309.942926 261.267417 310.578868 261.004001 311.047685 260.535184 
C 311.516502 260.066367 311.779918 259.430425 311.779918 258.767417 
C 311.779918 258.104409 311.516502 257.468467 311.047685 256.99965 
C 310.578868 256.530833 309.942926 256.267417 309.279918 256.267417 
C 308.61691 256.267417 307.980968 256.530833 307.512151 256.99965 
C 307.043334 257.468467 306.779918 258.104409 306.779918 258.767417 
C 306.779918 259.430425 307.043334 260.066367 307.512151 260.535184 
C 307.980968 261.004001 308.61691 261.267417 309.279918 261.267417 
z
" clip-path="url(#pfd8b779e2a)" style="fill: #a6d854; stroke: #000000"/>
   </g>
   <g id="matplotlib.axis_1"/>
   <g id="matplotlib.axis_2"/>
   <g id="text_1">
    <!-- Original Graph (Constraint Binned) -->
    <g transform="translate(255.719063 20.88) scale(0.12 -0.12)">
     <defs>
      <path id="DejaVuSans-4f" d="M 2522 4238 
Q 1834 4238 1429 3725 
Q 1025 3213 1025 2328 
Q 1025 1447 1429 934 
Q 1834 422 2522 422 
Q 3209 422 3611 934 
Q 4013 1447 4013 2328 
Q 4013 3213 3611 3725 
Q 3209 4238 2522 4238 
z
M 2522 4750 
Q 3503 4750 4090 4092 
Q 4678 3434 4678 2328 
Q 4678 1225 4090 567 
Q 3503 -91 2522 -91 
Q 1538 -91 948 565 
Q 359 1222 359 2328 
Q 359 3434 948 4092 
Q 1538 4750 2522 4750 
z
" transform="scale(0.015625)"/>
      <path id="DejaVuSans-72" d="M 2631 2963 
Q 2534 3019 2420 3045 
Q 2306 3072 2169 3072 
Q 1681 3072 1420 2755 
Q 1159 2438 1159 1844 
L 1159 0 
L 581 0 
L 581 3500 
L 1159 3500 
L 1159 2956 
Q 1341 3275 1631 3429 
Q 1922 3584 2338 3584 
Q 2397 3584 2469 3576 
Q 2541 3569 2628 3553 
L 2631 2963 
z
" transform="scale(0.015625)"/>
      <path id="DejaVuSans-69" d="M 603 3500 
L 1178 3500 
L 1178 0 
L 603 0 
L 603 3500 
z
M 603 4863 
L 1178 4863 
L 1178 4134 
L 603 4134 
L 603 4863 
z
" transform="scale(0.015625)"/>
      <path id="DejaVuSans-67" d="M 2906 1791 
Q 2906 2416 2648 2759 
Q 2391 3103 1925 3103 
Q 1463 3103 1205 2759 
Q 947 2416 947 1791 
Q 947 1169 1205 825 
Q 1463 481 1925 481 
Q 2391 481 2648 825 
Q 2906 1169 2906 1791 
z
M 3481 434 
Q 3481 -459 3084 -895 
Q 2688 -1331 1869 -1331 
Q 1566 -1331 1297 -1286 
Q 1028 -1241 775 -1147 
L 775 -588 
Q 1028 -725 1275 -790 
Q 1522 -856 1778 -856 
Q 2344 -856 2625 -561 
Q 2906 -266 2906 331 
L 2906 616 
Q 2728 306 2450 153 
Q 2172 0 1784 0 
Q 1141 0 747 490 
Q 353 981 353 1791 
Q 353 2603 747 3093 
Q 1141 3584 1784 3584 
Q 2172 3584 2450 3431 
Q 2728 3278 2906 2969 
L 2906 3500 
L 3481 3500 
L 3481 434 
z
" transform="scale(0.015625)"/>
      <path id="DejaVuSans-6e" d="M 3513 2113 
L 3513 0 
L 2938 0 
L 2938 2094 
Q 2938 2591 2744 2837 
Q 2550 3084 2163 3084 
Q 1697 3084 1428 2787 
Q 1159 2491 1159 1978 
L 1159 0 
L 581 0 
L 581 3500 
L 1159 3500 
L 1159 2956 
Q 1366 3272 1645 3428 
Q 1925 3584 2291 3584 
Q 2894 3584 3203 3211 
Q 3513 2838 3513 2113 
z
" transform="scale(0.015625)"/>
      <path id="DejaVuSans-61" d="M 2194 1759 
Q 1497 1759 1228 1600 
Q 959 1441 959 1056 
Q 959 750 1161 570 
Q 1363 391 1709 391 
Q 2188 391 2477 730 
Q 2766 1069 2766 1631 
L 2766 1759 
L 2194 1759 
z
M 3341 1997 
L 3341 0 
L 2766 0 
L 2766 531 
Q 2569 213 2275 61 
Q 1981 -91 1556 -91 
Q 1019 -91 701 211 
Q 384 513 384 1019 
Q 384 1609 779 1909 
Q 1175 2209 1959 2209 
L 2766 2209 
L 2766 2266 
Q 2766 2663 2505 2880 
Q 2244 3097 1772 3097 
Q 1472 3097 1187 3025 
Q 903 2953 641 2809 
L 641 3341 
Q 956 3463 1253 3523 
Q 1550 3584 1831 3584 
Q 2591 3584 2966 3190 
Q 3341 2797 3341 1997 
z
" transform="scale(0.015625)"/>
      <path id="DejaVuSans-6c" d="M 603 4863 
L 1178 4863 
L 1178 0 
L 603 0 
L 603 4863 
z
" transform="scale(0.015625)"/>
      <path id="DejaVuSans-20" transform="scale(0.015625)"/>
      <path id="DejaVuSans-47" d="M 3809 666 
L 3809 1919 
L 2778 1919 
L 2778 2438 
L 4434 2438 
L 4434 434 
Q 4069 175 3628 42 
Q 3188 -91 2688 -91 
Q 1594 -91 976 548 
Q 359 1188 359 2328 
Q 359 3472 976 4111 
Q 1594 4750 2688 4750 
Q 3144 4750 3555 4637 
Q 3966 4525 4313 4306 
L 4313 3634 
Q 3963 3931 3569 4081 
Q 3175 4231 2741 4231 
Q 1884 4231 1454 3753 
Q 1025 3275 1025 2328 
Q 1025 1384 1454 906 
Q 1884 428 2741 428 
Q 3075 428 3337 486 
Q 3600 544 3809 666 
z
" transform="scale(0.015625)"/>
      <path id="DejaVuSans-70" d="M 1159 525 
L 1159 -1331 
L 581 -1331 
L 581 3500 
L 1159 3500 
L 1159 2969 
Q 1341 3281 1617 3432 
Q 1894 3584 2278 3584 
Q 2916 3584 3314 3078 
Q 3713 2572 3713 1747 
Q 3713 922 3314 415 
Q 2916 -91 2278 -91 
Q 1894 -91 1617 61 
Q 1341 213 1159 525 
z
M 3116 1747 
Q 3116 2381 2855 2742 
Q 2594 3103 2138 3103 
Q 1681 3103 1420 2742 
Q 1159 2381 1159 1747 
Q 1159 1113 1420 752 
Q 1681 391 2138 391 
Q 2594 391 2855 752 
Q 3116 1113 3116 1747 
z
" transform="scale(0.015625)"/>
      <path id="DejaVuSans-68" d="M 3513 2113 
L 3513 0 
L 2938 0 
L 2938 2094 
Q 2938 2591 2744 2837 
Q 2550 3084 2163 3084 
Q 1697 3084 1428 2787 
Q 1159 2491 1159 1978 
L 1159 0 
L 581 0 
L 581 4863 
L 1159 4863 
L 1159 2956 
Q 1366 3272 1645 3428 
Q 1925 3584 2291 3584 
Q 2894 3584 3203 3211 
Q 3513 2838 3513 2113 
z
" transform="scale(0.015625)"/>
      <path id="DejaVuSans-28" d="M 1984 4856 
Q 1566 4138 1362 3434 
Q 1159 2731 1159 2009 
Q 1159 1288 1364 580 
Q 1569 -128 1984 -844 
L 1484 -844 
Q 1016 -109 783 600 
Q 550 1309 550 2009 
Q 550 2706 781 3412 
Q 1013 4119 1484 4856 
L 1984 4856 
z
" transform="scale(0.015625)"/>
      <path id="DejaVuSans-43" d="M 4122 4306 
L 4122 3641 
Q 3803 3938 3442 4084 
Q 3081 4231 2675 4231 
Q 1875 4231 1450 3742 
Q 1025 3253 1025 2328 
Q 1025 1406 1450 917 
Q 1875 428 2675 428 
Q 3081 428 3442 575 
Q 3803 722 4122 1019 
L 4122 359 
Q 3791 134 3420 21 
Q 3050 -91 2638 -91 
Q 1578 -91 968 557 
Q 359 1206 359 2328 
Q 359 3453 968 4101 
Q 1578 4750 2638 4750 
Q 3056 4750 3426 4639 
Q 3797 4528 4122 4306 
z
" transform="scale(0.015625)"/>
      <path id="DejaVuSans-6f" d="M 1959 3097 
Q 1497 3097 1228 2736 
Q 959 2375 959 1747 
Q 959 1119 1226 758 
Q 1494 397 1959 397 
Q 2419 397 2687 759 
Q 2956 1122 2956 1747 
Q 2956 2369 2687 2733 
Q 2419 3097 1959 3097 
z
M 1959 3584 
Q 2709 3584 3137 3096 
Q 3566 2609 3566 1747 
Q 3566 888 3137 398 
Q 2709 -91 1959 -91 
Q 1206 -91 779 398 
Q 353 888 353 1747 
Q 353 2609 779 3096 
Q 1206 3584 1959 3584 
z
" transform="scale(0.015625)"/>
      <path id="DejaVuSans-73" d="M 2834 3397 
L 2834 2853 
Q 2591 2978 2328 3040 
Q 2066 3103 1784 3103 
Q 1356 3103 1142 2972 
Q 928 2841 928 2578 
Q 928 2378 1081 2264 
Q 1234 2150 1697 2047 
L 1894 2003 
Q 2506 1872 2764 1633 
Q 3022 1394 3022 966 
Q 3022 478 2636 193 
Q 2250 -91 1575 -91 
Q 1294 -91 989 -36 
Q 684 19 347 128 
L 347 722 
Q 666 556 975 473 
Q 1284 391 1588 391 
Q 1994 391 2212 530 
Q 2431 669 2431 922 
Q 2431 1156 2273 1281 
Q 2116 1406 1581 1522 
L 1381 1569 
Q 847 1681 609 1914 
Q 372 2147 372 2553 
Q 372 3047 722 3315 
Q 1072 3584 1716 3584 
Q 2034 3584 2315 3537 
Q 2597 3491 2834 3397 
z
" transform="scale(0.015625)"/>
      <path id="DejaVuSans-74" d="M 1172 4494 
L 1172 3500 
L 2356 3500 
L 2356 3053 
L 1172 3053 
L 1172 1153 
Q 1172 725 1289 603 
Q 1406 481 1766 481 
L 2356 481 
L 2356 0 
L 1766 0 
Q 1100 0 847 248 
Q 594 497 594 1153 
L 594 3053 
L 172 3053 
L 172 3500 
L 594 3500 
L 594 4494 
L 1172 4494 
z
" transform="scale(0.015625)"/>
      <path id="DejaVuSans-42" d="M 1259 2228 
L 1259 519 
L 2272 519 
Q 2781 519 3026 730 
Q 3272 941 3272 1375 
Q 3272 1813 3026 2020 
Q 2781 2228 2272 2228 
L 1259 2228 
z
M 1259 4147 
L 1259 2741 
L 2194 2741 
Q 2656 2741 2882 2914 
Q 3109 3088 3109 3444 
Q 3109 3797 2882 3972 
Q 2656 4147 2194 4147 
L 1259 4147 
z
M 628 4666 
L 2241 4666 
Q 2963 4666 3353 4366 
Q 3744 4066 3744 3513 
Q 3744 3084 3544 2831 
Q 3344 2578 2956 2516 
Q 3422 2416 3680 2098 
Q 3938 1781 3938 1306 
Q 3938 681 3513 340 
Q 3088 0 2303 0 
L 628 0 
L 628 4666 
z
" transform="scale(0.015625)"/>
      <path id="DejaVuSans-65" d="M 3597 1894 
L 3597 1613 
L 953 1613 
Q 991 1019 1311 708 
Q 1631 397 2203 397 
Q 2534 397 2845 478 
Q 3156 559 3463 722 
L 3463 178 
Q 3153 47 2828 -22 
Q 2503 -91 2169 -91 
Q 1331 -91 842 396 
Q 353 884 353 1716 
Q 353 2575 817 3079 
Q 1281 3584 2069 3584 
Q 2775 3584 3186 3129 
Q 3597 2675 3597 1894 
z
M 3022 2063 
Q 3016 2534 2758 2815 
Q 2500 3097 2075 3097 
Q 1594 3097 1305 2825 
Q 1016 2553 972 2059 
L 3022 2063 
z
" transform="scale(0.015625)"/>
      <path id="DejaVuSans-64" d="M 2906 2969 
L 2906 4863 
L 3481 4863 
L 3481 0 
L 2906 0 
L 2906 525 
Q 2725 213 2448 61 
Q 2172 -91 1784 -91 
Q 1150 -91 751 415 
Q 353 922 353 1747 
Q 353 2572 751 3078 
Q 1150 3584 1784 3584 
Q 2172 3584 2448 3432 
Q 2725 3281 2906 2969 
z
M 947 1747 
Q 947 1113 1208 752 
Q 1469 391 1925 391 
Q 2381 391 2643 752 
Q 2906 1113 2906 1747 
Q 2906 2381 2643 2742 
Q 2381 3103 1925 3103 
Q 1469 3103 1208 2742 
Q 947 2381 947 1747 
z
" transform="scale(0.015625)"/>
      <path id="DejaVuSans-29" d="M 513 4856 
L 1013 4856 
Q 1481 4119 1714 3412 
Q 1947 2706 1947 2009 
Q 1947 1309 1714 600 
Q 1481 -109 1013 -844 
L 513 -844 
Q 928 -128 1133 580 
Q 1338 1288 1338 2009 
Q 1338 2731 1133 3434 
Q 928 4138 513 4856 
z
" transform="scale(0.015625)"/>
     </defs>
     <use xlink:href="#DejaVuSans-4f"/>
     <use xlink:href="#DejaVuSans-72" transform="translate(78.710938 0)"/>
     <use xlink:href="#DejaVuSans-69" transform="translate(119.824219 0)"/>
     <use xlink:href="#DejaVuSans-67" transform="translate(147.607422 0)"/>
     <use xlink:href="#DejaVuSans-69" transform="translate(211.083984 0)"/>
     <use xlink:href="#DejaVuSans-6e" transform="translate(238.867188 0)"/>
     <use xlink:href="#DejaVuSans-61" transform="translate(302.246094 0)"/>
     <use xlink:href="#DejaVuSans-6c" transform="translate(363.525391 0)"/>
     <use xlink:href="#DejaVuSans-20" transform="translate(391.308594 0)"/>
     <use xlink:href="#DejaVuSans-47" transform="translate(423.095703 0)"/>
     <use xlink:href="#DejaVuSans-72" transform="translate(500.585938 0)"/>
     <use xlink:href="#DejaVuSans-61" transform="translate(541.699219 0)"/>
     <use xlink:href="#DejaVuSans-70" transform="translate(602.978516 0)"/>
     <use xlink:href="#DejaVuSans-68" transform="translate(666.455078 0)"/>
     <use xlink:href="#DejaVuSans-20" transform="translate(729.833984 0)"/>
     <use xlink:href="#DejaVuSans-28" transform="translate(761.621094 0)"/>
     <use xlink:href="#DejaVuSans-43" transform="translate(800.634766 0)"/>
     <use xlink:href="#DejaVuSans-6f" transform="translate(870.458984 0)"/>
     <use xlink:href="#DejaVuSans-6e" transform="translate(931.640625 0)"/>
     <use xlink:href="#DejaVuSans-73" transform="translate(995.019531 0)"/>
     <use xlink:href="#DejaVuSans-74" transform="translate(1047.119141 0)"/>
     <use xlink:href="#DejaVuSans-72" transform="translate(1086.328125 0)"/>
     <use xlink:href="#DejaVuSans-61" transform="translate(1127.441406 0)"/>
     <use xlink:href="#DejaVuSans-69" transform="translate(1188.720703 0)"/>
     <use xlink:href="#DejaVuSans-6e" transform="translate(1216.503906 0)"/>
     <use xlink:href="#DejaVuSans-74" transform="translate(1279.882812 0)"/>
     <use xlink:href="#DejaVuSans-20" transform="translate(1319.091797 0)"/>
     <use xlink:href="#DejaVuSans-42" transform="translate(1350.878906 0)"/>
     <use xlink:href="#DejaVuSans-69" transform="translate(1419.482422 0)"/>
     <use xlink:href="#DejaVuSans-6e" transform="translate(1447.265625 0)"/>
     <use xlink:href="#DejaVuSans-6e" transform="translate(1510.644531 0)"/>
     <use xlink:href="#DejaVuSans-65" transform="translate(1574.023438 0)"/>
     <use xlink:href="#DejaVuSans-64" transform="translate(1635.546875 0)"/>
     <use xlink:href="#DejaVuSans-29" transform="translate(1699.023438 0)"/>
    </g>
   </g>
   <g id="legend_1">
    <g id="patch_3">
     <path d="M 633.39375 122.94875 
L 702.2 122.94875 
Q 704.2 122.94875 704.2 120.94875 
L 704.2 33.88 
Q 704.2 31.88 702.2 31.88 
L 633.39375 31.88 
Q 631.39375 31.88 631.39375 33.88 
L 631.39375 120.94875 
Q 631.39375 122.94875 633.39375 122.94875 
z
" style="fill: #ffffff; opacity: 0.8; stroke: #cccccc; stroke-linejoin: miter"/>
    </g>
    <g id="text_2">
     <!-- Constraint -->
     <g transform="translate(641.875 43.478438) scale(0.1 -0.1)">
      <use xlink:href="#DejaVuSans-43"/>
      <use xlink:href="#DejaVuSans-6f" transform="translate(69.824219 0)"/>
      <use xlink:href="#DejaVuSans-6e" transform="translate(131.005859 0)"/>
      <use xlink:href="#DejaVuSans-73" transform="translate(194.384766 0)"/>
      <use xlink:href="#DejaVuSans-74" transform="translate(246.484375 0)"/>
      <use xlink:href="#DejaVuSans-72" transform="translate(285.693359 0)"/>
      <use xlink:href="#DejaVuSans-61" transform="translate(326.806641 0)"/>
      <use xlink:href="#DejaVuSans-69" transform="translate(388.085938 0)"/>
      <use xlink:href="#DejaVuSans-6e" transform="translate(415.869141 0)"/>
      <use xlink:href="#DejaVuSans-74" transform="translate(479.248047 0)"/>
     </g>
    </g>
    <g id="patch_4">
     <path d="M 635.39375 58.156563 
L 655.39375 58.156563 
L 655.39375 51.156563 
L 635.39375 51.156563 
z
" style="fill: #66c2a5; stroke: #66c2a5; stroke-linejoin: miter"/>
    </g>
    <g id="text_3">
     <!-- 0.0–0.2 -->
     <g transform="translate(663.39375 58.156563) scale(0.1 -0.1)">
      <defs>
       <path id="DejaVuSans-30" d="M 2034 4250 
Q 1547 4250 1301 3770 
Q 1056 3291 1056 2328 
Q 1056 1369 1301 889 
Q 1547 409 2034 409 
Q 2525 409 2770 889 
Q 3016 1369 3016 2328 
Q 3016 3291 2770 3770 
Q 2525 4250 2034 4250 
z
M 2034 4750 
Q 2819 4750 3233 4129 
Q 3647 3509 3647 2328 
Q 3647 1150 3233 529 
Q 2819 -91 2034 -91 
Q 1250 -91 836 529 
Q 422 1150 422 2328 
Q 422 3509 836 4129 
Q 1250 4750 2034 4750 
z
" transform="scale(0.015625)"/>
       <path id="DejaVuSans-2e" d="M 684 794 
L 1344 794 
L 1344 0 
L 684 0 
L 684 794 
z
" transform="scale(0.015625)"/>
       <path id="DejaVuSans-2013" d="M 313 1978 
L 2888 1978 
L 2888 1528 
L 313 1528 
L 313 1978 
z
" transform="scale(0.015625)"/>
       <path id="DejaVuSans-32" d="M 1228 531 
L 3431 531 
L 3431 0 
L 469 0 
L 469 531 
Q 828 903 1448 1529 
Q 2069 2156 2228 2338 
Q 2531 2678 2651 2914 
Q 2772 3150 2772 3378 
Q 2772 3750 2511 3984 
Q 2250 4219 1831 4219 
Q 1534 4219 1204 4116 
Q 875 4013 500 3803 
L 500 4441 
Q 881 4594 1212 4672 
Q 1544 4750 1819 4750 
Q 2544 4750 2975 4387 
Q 3406 4025 3406 3419 
Q 3406 3131 3298 2873 
Q 3191 2616 2906 2266 
Q 2828 2175 2409 1742 
Q 1991 1309 1228 531 
z
" transform="scale(0.015625)"/>
      </defs>
      <use xlink:href="#DejaVuSans-30"/>
      <use xlink:href="#DejaVuSans-2e" transform="translate(63.623047 0)"/>
      <use xlink:href="#DejaVuSans-30" transform="translate(95.410156 0)"/>
      <use xlink:href="#DejaVuSans-2013" transform="translate(159.033203 0)"/>
      <use xlink:href="#DejaVuSans-30" transform="translate(209.033203 0)"/>
      <use xlink:href="#DejaVuSans-2e" transform="translate(272.65625 0)"/>
      <use xlink:href="#DejaVuSans-32" transform="translate(304.443359 0)"/>
     </g>
    </g>
    <g id="patch_5">
     <path d="M 635.39375 72.834688 
L 655.39375 72.834688 
L 655.39375 65.834688 
L 635.39375 65.834688 
z
" style="fill: #fc8d62; stroke: #fc8d62; stroke-linejoin: miter"/>
    </g>
    <g id="text_4">
     <!-- 0.2–0.4 -->
     <g transform="translate(663.39375 72.834688) scale(0.1 -0.1)">
      <defs>
       <path id="DejaVuSans-34" d="M 2419 4116 
L 825 1625 
L 2419 1625 
L 2419 4116 
z
M 2253 4666 
L 3047 4666 
L 3047 1625 
L 3713 1625 
L 3713 1100 
L 3047 1100 
L 3047 0 
L 2419 0 
L 2419 1100 
L 313 1100 
L 313 1709 
L 2253 4666 
z
" transform="scale(0.015625)"/>
      </defs>
      <use xlink:href="#DejaVuSans-30"/>
      <use xlink:href="#DejaVuSans-2e" transform="translate(63.623047 0)"/>
      <use xlink:href="#DejaVuSans-32" transform="translate(95.410156 0)"/>
      <use xlink:href="#DejaVuSans-2013" transform="translate(159.033203 0)"/>
      <use xlink:href="#DejaVuSans-30" transform="translate(209.033203 0)"/>
      <use xlink:href="#DejaVuSans-2e" transform="translate(272.65625 0)"/>
      <use xlink:href="#DejaVuSans-34" transform="translate(304.443359 0)"/>
     </g>
    </g>
    <g id="patch_6">
     <path d="M 635.39375 87.512813 
L 655.39375 87.512813 
L 655.39375 80.512813 
L 635.39375 80.512813 
z
" style="fill: #8da0cb; stroke: #8da0cb; stroke-linejoin: miter"/>
    </g>
    <g id="text_5">
     <!-- 0.4–0.6 -->
     <g transform="translate(663.39375 87.512813) scale(0.1 -0.1)">
      <defs>
       <path id="DejaVuSans-36" d="M 2113 2584 
Q 1688 2584 1439 2293 
Q 1191 2003 1191 1497 
Q 1191 994 1439 701 
Q 1688 409 2113 409 
Q 2538 409 2786 701 
Q 3034 994 3034 1497 
Q 3034 2003 2786 2293 
Q 2538 2584 2113 2584 
z
M 3366 4563 
L 3366 3988 
Q 3128 4100 2886 4159 
Q 2644 4219 2406 4219 
Q 1781 4219 1451 3797 
Q 1122 3375 1075 2522 
Q 1259 2794 1537 2939 
Q 1816 3084 2150 3084 
Q 2853 3084 3261 2657 
Q 3669 2231 3669 1497 
Q 3669 778 3244 343 
Q 2819 -91 2113 -91 
Q 1303 -91 875 529 
Q 447 1150 447 2328 
Q 447 3434 972 4092 
Q 1497 4750 2381 4750 
Q 2619 4750 2861 4703 
Q 3103 4656 3366 4563 
z
" transform="scale(0.015625)"/>
      </defs>
      <use xlink:href="#DejaVuSans-30"/>
      <use xlink:href="#DejaVuSans-2e" transform="translate(63.623047 0)"/>
      <use xlink:href="#DejaVuSans-34" transform="translate(95.410156 0)"/>
      <use xlink:href="#DejaVuSans-2013" transform="translate(159.033203 0)"/>
      <use xlink:href="#DejaVuSans-30" transform="translate(209.033203 0)"/>
      <use xlink:href="#DejaVuSans-2e" transform="translate(272.65625 0)"/>
      <use xlink:href="#DejaVuSans-36" transform="translate(304.443359 0)"/>
     </g>
    </g>
    <g id="patch_7">
     <path d="M 635.39375 102.190938 
L 655.39375 102.190938 
L 655.39375 95.190938 
L 635.39375 95.190938 
z
" style="fill: #e78ac3; stroke: #e78ac3; stroke-linejoin: miter"/>
    </g>
    <g id="text_6">
     <!-- 0.6–0.8 -->
     <g transform="translate(663.39375 102.190938) scale(0.1 -0.1)">
      <defs>
       <path id="DejaVuSans-38" d="M 2034 2216 
Q 1584 2216 1326 1975 
Q 1069 1734 1069 1313 
Q 1069 891 1326 650 
Q 1584 409 2034 409 
Q 2484 409 2743 651 
Q 3003 894 3003 1313 
Q 3003 1734 2745 1975 
Q 2488 2216 2034 2216 
z
M 1403 2484 
Q 997 2584 770 2862 
Q 544 3141 544 3541 
Q 544 4100 942 4425 
Q 1341 4750 2034 4750 
Q 2731 4750 3128 4425 
Q 3525 4100 3525 3541 
Q 3525 3141 3298 2862 
Q 3072 2584 2669 2484 
Q 3125 2378 3379 2068 
Q 3634 1759 3634 1313 
Q 3634 634 3220 271 
Q 2806 -91 2034 -91 
Q 1263 -91 848 271 
Q 434 634 434 1313 
Q 434 1759 690 2068 
Q 947 2378 1403 2484 
z
M 1172 3481 
Q 1172 3119 1398 2916 
Q 1625 2713 2034 2713 
Q 2441 2713 2670 2916 
Q 2900 3119 2900 3481 
Q 2900 3844 2670 4047 
Q 2441 4250 2034 4250 
Q 1625 4250 1398 4047 
Q 1172 3844 1172 3481 
z
" transform="scale(0.015625)"/>
      </defs>
      <use xlink:href="#DejaVuSans-30"/>
      <use xlink:href="#DejaVuSans-2e" transform="translate(63.623047 0)"/>
      <use xlink:href="#DejaVuSans-36" transform="translate(95.410156 0)"/>
      <use xlink:href="#DejaVuSans-2013" transform="translate(159.033203 0)"/>
      <use xlink:href="#DejaVuSans-30" transform="translate(209.033203 0)"/>
      <use xlink:href="#DejaVuSans-2e" transform="translate(272.65625 0)"/>
      <use xlink:href="#DejaVuSans-38" transform="translate(304.443359 0)"/>
     </g>
    </g>
    <g id="patch_8">
     <path d="M 635.39375 116.869063 
L 655.39375 116.869063 
L 655.39375 109.869063 
L 635.39375 109.869063 
z
" style="fill: #a6d854; stroke: #a6d854; stroke-linejoin: miter"/>
    </g>
    <g id="text_7">
     <!-- 0.8–1.0 -->
     <g transform="translate(663.39375 116.869063) scale(0.1 -0.1)">
      <defs>
       <path id="DejaVuSans-31" d="M 794 531 
L 1825 531 
L 1825 4091 
L 703 3866 
L 703 4441 
L 1819 4666 
L 2450 4666 
L 2450 531 
L 3481 531 
L 3481 0 
L 794 0 
L 794 531 
z
" transform="scale(0.015625)"/>
      </defs>
      <use xlink:href="#DejaVuSans-30"/>
      <use xlink:href="#DejaVuSans-2e" transform="translate(63.623047 0)"/>
      <use xlink:href="#DejaVuSans-38" transform="translate(95.410156 0)"/>
      <use xlink:href="#DejaVuSans-2013" transform="translate(159.033203 0)"/>
      <use xlink:href="#DejaVuSans-31" transform="translate(209.033203 0)"/>
      <use xlink:href="#DejaVuSans-2e" transform="translate(272.65625 0)"/>
      <use xlink:href="#DejaVuSans-30" transform="translate(304.443359 0)"/>
     </g>
    </g>
   </g>
  </g>
 </g>
 <defs>
  <clipPath id="pfd8b779e2a">
   <rect x="10.8" y="26.88" width="698.4" height="538.32"/>
  </clipPath>
 </defs>
</svg>
